<?xml version="1.0" encoding="utf-8"?>
<!-- Generator: Adobe Illustrator 16.0.4, SVG Export Plug-In . SVG Version: 6.00 Build 0)  -->
<!DOCTYPE svg PUBLIC "-//W3C//DTD SVG 1.1//EN" "http://www.w3.org/Graphics/SVG/1.1/DTD/svg11.dtd">
<svg version="1.1" id="Layer_1" xmlns="http://www.w3.org/2000/svg" xmlns:xlink="http://www.w3.org/1999/xlink" x="0px" y="0px"
	 width="50px" height="50px" viewBox="0 0 50 50" style="enable-background:new 0 0 50 50;" xml:space="preserve">
<g>
	<g>
		<path style="fill:#FFFFFF;" d="M34.875,19.256c0.346-1.216,0.345-2.504-0.004-3.725c-0.818-2.86-3.364-4.84-6.336-4.921
			c-0.789-0.025-1.452,0.599-1.477,1.393c-0.021,0.791,0.604,1.453,1.396,1.476c1.712,0.047,3.185,1.191,3.657,2.844
			c0.198,0.704,0.199,1.447,0.001,2.146c-0.216,0.764,0.226,1.556,0.989,1.772c0.267,0.079,0.538,0.074,0.784,0.001
			C34.352,20.11,34.733,19.751,34.875,19.256z"/>
		<path style="fill:#FFFFFF;" d="M39.827,19.841c0.364-1.947,0.277-3.913-0.272-5.837c-1.352-4.721-5.357-8.269-10.206-9.038
			c-0.782-0.129-1.519,0.41-1.644,1.188c-0.123,0.785,0.41,1.518,1.192,1.645c3.751,0.597,6.852,3.342,7.896,6.994
			c0.426,1.491,0.496,3.013,0.212,4.515c-0.148,0.78,0.364,1.529,1.144,1.677c0.226,0.043,0.452,0.027,0.658-0.029
			C39.314,20.811,39.723,20.393,39.827,19.841z"/>
		<path style="fill:#FFFFFF;" d="M45.94,19.952c0.204-2.25-0.007-4.5-0.631-6.693C43.365,6.468,37.601,1.362,30.626,0.252
			c-0.78-0.123-1.518,0.411-1.641,1.192c-0.126,0.784,0.409,1.52,1.19,1.645c5.878,0.936,10.735,5.235,12.371,10.959
			c0.529,1.849,0.71,3.747,0.536,5.637c-0.074,0.791,0.507,1.489,1.298,1.562c0.182,0.018,0.357,0,0.525-0.048
			C45.459,21.039,45.886,20.558,45.94,19.952z"/>
	</g>
	<path style="fill:#FFFFFF;" d="M27.875,15.209H8.111c-2.086,0-2.865,0.488-2.865,2.573v27.431c0,1.519,0.399,2.454,1.04,3.029
		v0.005h0.005c0.854,0.763,2.133,0.891,3.479,0.891h17.134c2.517,0,3.343-1.021,3.343-4.049V18.118
		C30.246,15.767,29.818,15.209,27.875,15.209z M11.88,47.084h-1.437c-1.007,0-1.823-0.816-1.823-1.822
		c0-1.007,0.816-1.823,1.823-1.823h1.437c1.007,0,1.823,0.816,1.823,1.823C13.703,46.268,12.887,47.084,11.88,47.084z M11.88,42.584
		h-1.437c-1.007,0-1.823-0.816-1.823-1.822c0-1.007,0.816-1.823,1.823-1.823h1.437c1.007,0,1.823,0.816,1.823,1.823
		C13.703,41.768,12.887,42.584,11.88,42.584z M11.88,38.178h-1.437c-1.007,0-1.823-0.816-1.823-1.822
		c0-1.007,0.816-1.823,1.823-1.823h1.437c1.007,0,1.823,0.816,1.823,1.823C13.703,37.361,12.887,38.178,11.88,38.178z
		 M18.681,47.084h-1.437c-1.007,0-1.823-0.816-1.823-1.822c0-1.007,0.816-1.823,1.823-1.823h1.437c1.007,0,1.822,0.816,1.822,1.823
		C20.503,46.268,19.688,47.084,18.681,47.084z M18.681,42.584h-1.437c-1.007,0-1.823-0.816-1.823-1.822
		c0-1.007,0.816-1.823,1.823-1.823h1.437c1.007,0,1.822,0.816,1.822,1.823C20.503,41.768,19.688,42.584,18.681,42.584z
		 M18.681,38.178h-1.437c-1.007,0-1.823-0.816-1.823-1.822c0-1.007,0.816-1.823,1.823-1.823h1.437c1.007,0,1.822,0.816,1.822,1.823
		C20.503,37.361,19.688,38.178,18.681,38.178z M25.481,47.084h-1.437c-1.007,0-1.823-0.816-1.823-1.822
		c0-1.007,0.816-1.823,1.823-1.823h1.437c1.007,0,1.822,0.816,1.822,1.823C27.304,46.268,26.488,47.084,25.481,47.084z
		 M25.481,42.584h-1.437c-1.007,0-1.823-0.816-1.823-1.822c0-1.007,0.816-1.823,1.823-1.823h1.437c1.007,0,1.822,0.816,1.822,1.823
		C27.304,41.768,26.488,42.584,25.481,42.584z M25.481,38.178h-1.437c-1.007,0-1.823-0.816-1.823-1.822
		c0-1.007,0.816-1.823,1.823-1.823h1.437c1.007,0,1.822,0.816,1.822,1.823C27.304,37.361,26.488,38.178,25.481,38.178z
		 M27.567,28.648c0,2.41-1.231,3.524-2.454,3.524H9.991c-1.515,0-2.066-1.546-2.066-2.917V19.9c0-2.346,0.714-2.013,2.301-2.013
		h14.643c1.829,0,2.698-0.168,2.698,1.988V28.648z"/>
</g>
</svg>
