<?xml version="1.0" encoding="utf-8"?>
<!-- Generator: Adobe Illustrator 16.0.4, SVG Export Plug-In . SVG Version: 6.00 Build 0)  -->
<!DOCTYPE svg PUBLIC "-//W3C//DTD SVG 1.1//EN" "http://www.w3.org/Graphics/SVG/1.1/DTD/svg11.dtd">
<svg version="1.1" id="Capa_1" xmlns="http://www.w3.org/2000/svg" xmlns:xlink="http://www.w3.org/1999/xlink" x="0px" y="0px"
	 viewBox="0 0 50 50" style="enable-background:new 0 0 50 50;" xml:space="preserve">
<g>
	<g>
		<g>
			<g>
				<path style="fill:#FFFFFF;" d="M32.688,47.015c4.715-0.146,8.488-3.99,8.488-8.705c0-3.627-2.25-6.817-5.441-8.051
					c-0.871-0.363-1.814-0.581-2.83-0.581c-0.07,0-0.07,0-0.145,0c-0.072,0-0.072,0-0.143,0c-0.074,0-0.074,0-0.146,0l0,0
					c-4.787,0-8.704,3.917-8.704,8.704c0,1.379,0.289,2.613,0.871,3.772c0.507,1.089,1.304,2.031,2.175,2.829
					c1.523,1.306,3.482,2.104,5.658,2.104c0.072,0,0.072,0,0.146,0C32.617,47.015,32.688,47.015,32.688,47.015L32.688,47.015z
					 M34.502,26.775c5.512,0.944,9.648,5.804,9.648,11.534c0,6.457-5.225,11.679-11.68,11.679c-3.771,0-7.182-1.814-9.358-4.643
					c-5.803,0.363-12.041-0.726-14.941-3.554c-1.523-1.523-2.321-3.338-2.321-5.513c0-4.497,1.522-9.504,4.062-13.347
					c1.232-1.886,2.683-3.41,4.207-4.569c0.217-0.291,0.363-0.581,0.435-0.942c0.073-0.509-0.072-1.089-0.363-1.524
					c-1.522-1.668-2.465-3.918-2.465-6.383c0-5.223,4.278-9.502,9.501-9.502c5.224,0,9.503,4.279,9.503,9.502
					c0,2.465-0.943,4.714-2.467,6.383c-0.291,0.509-0.436,1.016-0.363,1.524c0.072,0.362,0.145,0.652,0.436,0.942
					c1.596,1.16,2.975,2.683,4.207,4.569C33.27,24.093,33.92,25.398,34.502,26.775z M31.238,26.704
					c-2.539-4.934-6.746-7.761-10.084-7.761c-5.15,0-12.33,6.6-12.33,17.336c0,1.378,0.435,2.466,1.378,3.336
					c1.885,1.813,6.601,2.684,11.17,2.684c-0.435-1.232-0.652-2.538-0.652-3.917C20.792,32.29,25.362,27.285,31.238,26.704z
					 M26.451,13.212c0.797-1.088,1.232-2.393,1.232-3.771c0-3.554-2.901-6.529-6.529-6.529c-3.626,0-6.527,2.902-6.527,6.529
					c0,1.378,0.435,2.684,1.232,3.771c0.218,0.219,0.435,0.508,0.653,0.726c1.162,1.234,2.829,1.958,4.642,1.958
					s3.483-0.725,4.643-1.958C26.014,13.648,26.232,13.431,26.451,13.212z"/>
			</g>
		</g>
	</g>
	<g>
		<g>
			<path style="fill:#FFFFFF;" d="M34.861,34.451c0.613-0.613,1.43-0.717,2.145-0.104c0.715,0.715,0.613,1.43-0.102,2.145
				l-2.246,2.248l2.246,2.246c0.613,0.613,0.715,1.429,0.102,2.145c-0.611,0.714-1.43,0.612-2.145-0.102l-2.244-2.247l-2.25,2.247
				c-0.611,0.612-1.43,0.714-2.141,0.102c-0.719-0.716-0.615-1.43,0.1-2.145l2.246-2.246l-2.246-2.248
				c-0.613-0.611-0.613-1.531-0.1-2.145c0.609-0.613,1.43-0.613,2.141,0.104l2.25,2.247L34.861,34.451z"/>
		</g>
	</g>
</g>
</svg>
