<?xml version="1.0" encoding="utf-8"?>
<!-- Generator: Adobe Illustrator 16.0.4, SVG Export Plug-In . SVG Version: 6.00 Build 0)  -->
<!DOCTYPE svg PUBLIC "-//W3C//DTD SVG 1.1//EN" "http://www.w3.org/Graphics/SVG/1.1/DTD/svg11.dtd">
<svg version="1.1" id="Layer_1" xmlns="http://www.w3.org/2000/svg" xmlns:xlink="http://www.w3.org/1999/xlink" x="0px" y="0px"
	 width="50px" height="50px" viewBox="0 0 50 50" style="enable-background:new 0 0 50 50;" xml:space="preserve">
<g>
	<path style="fill:#FFFFFF;" d="M41.425,8.947v-5.88c0-1.471-0.881-2.352-2.352-2.352H10.032c-1.469,0-2.351,0.881-2.351,2.352
		v43.508c0,1.471,0.882,2.352,2.351,2.352h9.241l4.117-0.001h15.683c1.471,0,2.352-0.88,2.352-2.352V13.062 M13.229,38.932V11.047
		c0-0.734,0.439-1.176,1.175-1.176h19.285c0.738,0,1.178,0.441,1.178,1.176v27.885c0,0.735-0.439,1.177-1.178,1.177H14.404
		C13.669,40.108,13.229,39.667,13.229,38.932z M19.347,3.377h9.346c0.645,0,1.166,0.523,1.166,1.169s-0.521,1.168-1.166,1.168
		h-9.346c-0.647,0-1.17-0.522-1.17-1.168S18.699,3.377,19.347,3.377z"/>
	<circle style="fill:#F26922;" cx="24.553" cy="44.538" r="1.836"/>
	<polygon style="fill:#FFFFFF;" points="17,23 15.223,23 19.221,18.961 23.024,23 22,23 22,31 17,31 	"/>
	<polygon style="fill:#FFFFFF;" points="31,26 32.847,26 28.847,30.039 25.044,26 27,26 27,19 31,19 	"/>
</g>
</svg>
