<?xml version="1.0" encoding="utf-8"?>
<!-- Generator: Adobe Illustrator 16.0.4, SVG Export Plug-In . SVG Version: 6.00 Build 0)  -->
<!DOCTYPE svg PUBLIC "-//W3C//DTD SVG 1.1//EN" "http://www.w3.org/Graphics/SVG/1.1/DTD/svg11.dtd">
<svg version="1.1" id="Layer_1" xmlns="http://www.w3.org/2000/svg" xmlns:xlink="http://www.w3.org/1999/xlink" x="0px" y="0px"
	 width="400px" height="400px" viewBox="0 0 400 400" style="enable-background:new 0 0 400 400;" xml:space="preserve">
<path style="fill:#979797;" d="M110.144,21.789c97.095-48.68,215.73-8.512,264.978,89.714
	c49.246,98.226,10.459,217.318-86.636,265.999c-97.1,48.682-215.735,8.516-264.982-89.71
	C-25.744,189.566,13.045,70.471,110.144,21.789z M90.292,255.807c30.708,61.248,104.682,86.294,165.223,55.939
	c60.544-30.354,84.731-104.614,54.024-165.862c-30.708-61.248-104.683-86.293-165.228-55.938
	C83.771,120.3,59.584,194.56,90.292,255.807z"/>
<path style="fill:#EC9022;" d="M212.542,77.11c-22.613-2.509-46.239,1.363-68.41,12.479
	c-61.503,30.836-84.912,104.167-53.716,166.39l-66.169,33.177l0,0c-50.031-99.79-13.463-219.348,85.176-268.802
	c34.78-17.437,68.923-22.196,104.879-18.991"/>
<polygon style="fill:#FFFFFF;" points="92.212,252.041 21.116,290.17 22.47,293.229 93.765,255.871 "/>
<path style="fill:#979797;" d="M443.968,154.819c0-108.615,89.078-196.665,198.959-196.665c109.88,0,198.957,88.05,198.957,196.665
	c0,108.621-89.077,196.671-198.957,196.671C533.046,351.49,443.968,263.438,443.968,154.819z M644.268,277.449
	c68.515,0,124.058-54.902,124.058-122.626c0-67.729-55.543-122.633-124.058-122.633S520.209,87.094,520.209,154.823
	C520.21,222.547,575.753,277.449,644.268,277.449z"/>
<path style="fill:#EC9022;" d="M674.478,359.436c-111.628,0-202.117-86.273-202.117-196.617
	c0-110.341,87.506-199.787,199.13-199.787c1.296,0,1.486,0.012,2.777,0.037V40.19c-69.604,0-124.458,53.831-124.458,122.633
	c0,68.8,55.062,122.593,124.667,122.593L674.478,359.436L674.478,359.436z"/>
<polygon style="fill:#FFFFFF;" points="211.426,1.103 211.426,77.735 214.762,77.976 215.535,1.522 "/>
<polygon style="fill:#FFFFFF;" points="-51,325.96 -51,399.769 -46.891,400 -46.891,325.709 "/>
<rect x="99.491" y="141.992" style="fill:none;" width="223.869" height="111.834"/>
<text transform="matrix(1.0116 0 0 1 135.9512 167.6074)" style="fill:#010101; font-family:'NeoSansStd-Light'; font-size:34.4763;">Uso actual</text>
<text transform="matrix(1.0116 0 0 1 119.4131 246.9346)" style="fill:#979797; font-family:'NeoSansStd-Bold'; font-size:89.2431;">3,5</text>
<text transform="matrix(1.0116 0 0 1 260.6035 246.9346)" style="fill:#010101; font-family:'NeoSansStd-Regular'; font-size:34.4763;">GB</text>
</svg>
