<?xml version="1.0" encoding="utf-8"?>
<!-- Generator: Adobe Illustrator 16.0.4, SVG Export Plug-In . SVG Version: 6.00 Build 0)  -->
<!DOCTYPE svg PUBLIC "-//W3C//DTD SVG 1.1//EN" "http://www.w3.org/Graphics/SVG/1.1/DTD/svg11.dtd">
<svg version="1.1" id="Layer_1" xmlns="http://www.w3.org/2000/svg" xmlns:xlink="http://www.w3.org/1999/xlink" x="0px" y="0px"
	 width="400px" height="400px" viewBox="0 0 400 400" style="enable-background:new 0 0 400 400;" xml:space="preserve">
<g>
	<path style="fill:#EC9022;" d="M1.415,201.121c0-110.039,89.203-199.239,199.24-199.239c110.036,0,199.238,89.2,199.238,199.239
		c0,110.034-89.202,199.239-199.238,199.239C90.617,400.36,1.415,311.155,1.415,201.121z M201.998,325.355
		c68.611,0,124.231-55.621,124.231-124.234c0-68.613-55.62-124.234-124.231-124.234c-68.615,0-124.235,55.621-124.235,124.234
		C77.763,269.734,133.383,325.355,201.998,325.355z"/>
	<rect x="122.971" y="150.942" style="fill:none;" width="170.015" height="113.294"/>
	<text transform="matrix(1 0 0 1 132.3975 176.8931)"><tspan x="0" y="0" style="fill:#010101; font-family:'NeoSansStd-Light'; font-size:34.927;">Uso actual</tspan><tspan x="18.524" y="70.577" style="fill:#979797; font-family:'NeoSansStd-Bold'; font-size:76.149;">5</tspan><tspan x="67.639" y="70.577" style="fill:#010101; font-family:'NeoSansStd-Regular'; font-size:34.927;">SMS</tspan></text>
</g>
<path style="fill:#979797;" d="M200.58-0.171v77.177c0,0-16.708,0.506-27.412,3.46L151.336,5.774
	C151.336,5.774,178.977-1.294,200.58-0.171z"/>
<rect x="200.58" y="1.882" style="fill:#FFFFFF;" width="2.863" height="75.124"/>
<polygon style="fill:#FFFFFF;" points="149.331,8.811 152.06,7.951 173.168,80.466 170.568,80.897 "/>
</svg>
