<?xml version="1.0" encoding="utf-8"?>
<!-- Generator: Adobe Illustrator 16.0.4, SVG Export Plug-In . SVG Version: 6.00 Build 0)  -->
<!DOCTYPE svg PUBLIC "-//W3C//DTD SVG 1.1//EN" "http://www.w3.org/Graphics/SVG/1.1/DTD/svg11.dtd">
<svg version="1.1" id="Layer_1" xmlns="http://www.w3.org/2000/svg" xmlns:xlink="http://www.w3.org/1999/xlink" x="0px" y="0px"
	 width="500px" height="205.622px" viewBox="0 0 500 205.622" style="enable-background:new 0 0 500 205.622;" xml:space="preserve"
	>
<g>
	<path style="fill:#A81D3D;" d="M260.462,3.128c53.766,1.5,96.888,45.554,96.888,99.681c0,54.126-43.122,98.183-96.888,99.683
		v-37.323l1.362-0.276c32.701-1.828,58.656-28.925,58.656-62.083c0-33.39-26.317-60.633-59.344-62.116"/>
	<path style="fill:#B3ACB0;" d="M261.281,204.115c-55.95,0-101.304-45.355-101.304-101.305c0-55.95,43.859-101.305,99.808-101.305
		c0.649,0,0.746,0.006,1.392,0.02v39.105c-34.886,0-62.38,27.294-62.38,62.18s27.599,62.161,62.484,62.161V204.115z"/>
	<polygon style="fill:#FFFFFF;" points="261.281,2.986 261.281,40.411 262.955,40.53 263.343,3.192 	"/>
	<polygon style="fill:#FFFFFF;" points="261.281,165.08 261.281,202.506 263.343,202.623 263.343,164.953 	"/>
	<rect x="214.899" y="77.694" style="fill:none;" width="95.275" height="56.706"/>
	<text transform="matrix(1 0 0 1 216.2471 90.6831)"><tspan x="0" y="0" style="fill:#010101; font-family:'NeoSansStd-Light'; font-size:17.4814;">GB utilizados</tspan><tspan x="19.117" y="36" style="fill:#A81D3D; font-family:'NeoSansStd-Bold'; font-size:34.7486;">2,5</tspan></text>
</g>
</svg>
