<?xml version="1.0" encoding="utf-8"?>
<!-- Generator: Adobe Illustrator 16.0.4, SVG Export Plug-In . SVG Version: 6.00 Build 0)  -->
<!DOCTYPE svg PUBLIC "-//W3C//DTD SVG 1.1//EN" "http://www.w3.org/Graphics/SVG/1.1/DTD/svg11.dtd">
<svg version="1.1" id="Layer_1" xmlns="http://www.w3.org/2000/svg" xmlns:xlink="http://www.w3.org/1999/xlink" x="0px" y="0px"
	 width="400px" height="400px" viewBox="0 0 400 400" style="enable-background:new 0 0 400 400;" xml:space="preserve">
<g>
	<path style="fill:#EC9022;" d="M3.261,201.033C3.261,91.739,91.859,3.14,201.151,3.14c109.293,0,197.894,88.599,197.894,197.893
		c0,109.29-88.601,197.895-197.894,197.895C91.859,398.928,3.261,310.323,3.261,201.033z M202.488,324.428
		c68.146,0,123.393-55.246,123.393-123.395c0-68.148-55.246-123.394-123.393-123.394c-68.149,0-123.395,55.246-123.395,123.394
		C79.094,269.182,134.339,324.428,202.488,324.428z"/>
	<rect x="123.992" y="151.191" style="fill:none;" width="168.866" height="112.53"/>
	<text transform="matrix(1 0 0 1 133.355 176.9658)"><tspan x="0" y="0" style="fill:#010101; font-family:'NeoSansStd-Light'; font-size:34.6911;">Uso actual</tspan><tspan x="15.334" y="70.101" style="fill:#979797; font-family:'NeoSansStd-Bold'; font-size:73.7899;">2</tspan><tspan x="62.928" y="70.101" style="fill:#010101; font-family:'NeoSansStd-Regular'; font-size:34.6911;">MMS</tspan></text>
</g>
<path style="fill:#979797;" d="M200.596,0.681v76.847c0,0-5.712,0.092-10.093,0.59L177.829,2.032
	C177.829,2.032,191.718,0.157,200.596,0.681z"/>
<polygon style="fill:#FFFFFF;" points="200.596,3.174 203.841,3.174 203.271,77.676 200.596,77.528 "/>
<polygon style="fill:#FFFFFF;" points="175.051,4.846 178.232,4.453 190.544,78.23 187.885,78.534 "/>
</svg>
