<?xml version="1.0" encoding="utf-8"?>
<!-- Generator: Adobe Illustrator 16.0.4, SVG Export Plug-In . SVG Version: 6.00 Build 0)  -->
<!DOCTYPE svg PUBLIC "-//W3C//DTD SVG 1.1//EN" "http://www.w3.org/Graphics/SVG/1.1/DTD/svg11.dtd">
<svg version="1.1" id="Layer_1" xmlns="http://www.w3.org/2000/svg" xmlns:xlink="http://www.w3.org/1999/xlink" x="0px" y="0px"
	 width="400px" height="400px" viewBox="0 0 400 400" style="enable-background:new 0 0 400 400;" xml:space="preserve">
<path style="fill:#EC9022;" d="M198.226,80.598c-67.202,0-121.675,54.475-121.675,121.672c0,67.199,54.473,121.671,121.675,121.671
	c67.191,0,121.666-54.472,121.666-121.671h76.462c0,109.428-88.708,198.132-198.128,198.132
	c-109.43,0-198.136-88.704-198.136-198.132C0.089,92.845,88.796,4.139,198.226,4.139V80.598z"/>
<path style="fill:#979797;" d="M195.154,1.694c112.8,0,204.241,91.44,204.241,204.244l-79.602-0.077
	c0-69.27-55.37-125.346-124.639-125.346V1.694z"/>
<polygon style="fill:#FFFFFF;" points="400.227,204.115 319.793,204.115 319.56,207.431 399.822,208.2 "/>
<polygon style="fill:#FFFFFF;" points="195.4,90.895 195.4,-0.43 191.536,0.117 191.595,90.511 "/>
<rect x="101.684" y="129.411" style="fill:none;" width="197.105" height="161.979"/>
<text transform="matrix(1 0 0 1 125.2212 155.1675)"><tspan x="0" y="0" style="fill:#010101; font-family:'NeoSansStd-Light'; font-size:34.6655;">Uso actual</tspan><tspan x="-10.562" y="82.663" style="fill:#979797; font-family:'NeoSansStd-Bold'; font-size:88.4531;">350</tspan><tspan x="160.592" y="82.663" style="fill:#979797; font-family:'NeoSansStd-Regular'; font-size:88.4531;"> </tspan><tspan x="13.398" y="124.414" style="fill:#010101; font-family:'NeoSansStd-Regular'; font-size:34.6655;">minutos</tspan></text>
</svg>
