<?xml version="1.0" encoding="utf-8"?>
<!-- Generator: Adobe Illustrator 16.0.4, SVG Export Plug-In . SVG Version: 6.00 Build 0)  -->
<!DOCTYPE svg PUBLIC "-//W3C//DTD SVG 1.1//EN" "http://www.w3.org/Graphics/SVG/1.1/DTD/svg11.dtd">
<svg version="1.1" id="Layer_1" xmlns="http://www.w3.org/2000/svg" xmlns:xlink="http://www.w3.org/1999/xlink" x="0px" y="0px"
	 width="400px" height="400px" viewBox="0 0 400 400" style="enable-background:new 0 0 400 400;" xml:space="preserve">
<g>
	<path style="fill:#979797;" d="M2.193,199.787C2.193,91.172,91.271,3.122,201.152,3.122c109.88,0,198.957,88.05,198.957,196.665
		c0,108.62-89.077,196.671-198.957,196.671C91.271,396.458,2.193,308.406,2.193,199.787z M202.493,322.418
		c68.515,0,124.058-54.903,124.058-122.627c0-67.729-55.543-122.633-124.058-122.633c-68.514,0-124.058,54.905-124.058,122.633
		C78.436,267.515,133.979,322.418,202.493,322.418z"/>
	<path style="fill:#EC9022;" d="M202.703,399.58c-111.628,0-202.117-89.45-202.117-199.793C0.586,89.446,88.092,0,199.716,0
		c1.296,0,1.486,0.012,2.777,0.037v77.121c-69.604,0-124.458,53.831-124.458,122.633c0,68.8,55.062,122.593,124.667,122.593V399.58z
		"/>
	<polygon style="fill:#FFFFFF;" points="202.703,2.919 202.703,76.727 206.039,76.958 206.813,3.323 	"/>
	<polygon style="fill:#FFFFFF;" points="202.703,322.596 202.703,396.404 206.813,396.636 206.813,322.345 	"/>
	<rect x="99.491" y="141.992" style="fill:none;" width="223.869" height="111.834"/>
	<text transform="matrix(1.0116 0 0 1 135.9517 167.6074)"><tspan x="0" y="0" style="fill:#010101; font-family:'NeoSansStd-Light'; font-size:34.4763;">Uso actual</tspan><tspan x="-16.349" y="79.327" style="fill:#979797; font-family:'NeoSansStd-Bold'; font-size:89.2431;">2,5</tspan><tspan x="123.223" y="79.327" style="fill:#010101; font-family:'NeoSansStd-Regular'; font-size:34.4763;">GB</tspan></text>
</g>
</svg>
