<?xml version="1.0" encoding="utf-8"?>
<!-- Generator: Adobe Illustrator 16.0.4, SVG Export Plug-In . SVG Version: 6.00 Build 0)  -->
<!DOCTYPE svg PUBLIC "-//W3C//DTD SVG 1.1//EN" "http://www.w3.org/Graphics/SVG/1.1/DTD/svg11.dtd">
<svg version="1.1" id="Layer_1" xmlns="http://www.w3.org/2000/svg" xmlns:xlink="http://www.w3.org/1999/xlink" x="0px" y="0px"
	 width="100px" height="100px" viewBox="0 0 100 100" style="enable-background:new 0 0 100 100;" xml:space="preserve">
<g>
	<path style="fill:#FFFFFF;stroke:#FFFFFF;stroke-miterlimit:10;" d="M97.533,50.645L56.025,10.489
		c-1.416-1.469-3.303-2.071-5.316-2.071l0,0c-2.019,0-3.906,0.608-5.24,1.993L2.423,50.791c-2.211,2.289-1.881,4.193-1.491,5.111
		c0.389,0.93,1.534,2.5,4.766,2.5h7.325l-0.017,32.854c0,1.197,0.969,2.133,2.174,2.137v-0.012c1.199,0,2.174-0.984,2.174-2.189
		l0.017-35.094c0-0.578-0.232-1.062-0.636-1.471c-0.408-0.41-0.958-0.57-1.538-0.57H5.698c-0.126,0-0.235-0.072-0.335-0.076
		c0.032-0.045,0.072-0.115,0.112-0.164l43.043-40.494c0.585-0.607,1.362-0.949,2.191-0.949v-0.005c0.822,0,1.604,0.335,2.236,0.99
		l41.506,40.354c0.07,0.068,0.131,0.207,0.182,0.27c-0.094,0.004-0.201,0.076-0.324,0.076h-9.506c-1.197,0-2.166,0.904-2.174,2.1
		L82.57,91.125c0,1.205,0.967,2.049,2.168,2.049c0,0,0,0,0.006,0c1.195,0,2.17-0.811,2.17-2.008l0.059-32.764h7.336
		c3.225,0,4.371-1.619,4.762-2.549C99.463,54.934,99.787,52.98,97.533,50.645z"/>
	<path style="fill:#FFFFFF;stroke:#FFFFFF;stroke-miterlimit:10;" d="M60.836,93.357c1.199,0,2.172-0.971,2.172-2.174V59.498
		c0-1.205-0.93-2.18-2.129-2.18H39.102c-1.196,0-2.174,0.975-2.174,2.18v31.686c0,1.203,0.978,2.174,2.174,2.174
		c1.202,0,2.177-0.971,2.177-2.174V61.666h17.385v29.518C58.664,92.389,59.635,93.357,60.836,93.357z"/>
	<path style="fill:#FFFFFF;stroke:#FFFFFF;stroke-miterlimit:10;" d="M15.381,93.641c-1.299,0-2.352-1.051-2.352-2.348
		c-0.002-1.303,1.05-2.354,2.346-2.359l69.082-0.115c0.004,0,0.004,0,0.004,0c1.301,0,2.354,1.045,2.354,2.348
		c0.004,1.295-1.051,2.352-2.35,2.357l-69.079,0.117C15.381,93.641,15.381,93.641,15.381,93.641z"/>
</g>
</svg>
