<?xml version="1.0" encoding="utf-8"?>
<!-- Generator: Adobe Illustrator 16.0.4, SVG Export Plug-In . SVG Version: 6.00 Build 0)  -->
<!DOCTYPE svg PUBLIC "-//W3C//DTD SVG 1.1//EN" "http://www.w3.org/Graphics/SVG/1.1/DTD/svg11.dtd">
<svg version="1.1" id="Layer_1" xmlns="http://www.w3.org/2000/svg" xmlns:xlink="http://www.w3.org/1999/xlink" x="0px" y="0px"
	 width="50px" height="50px" viewBox="0 0 50 50" style="enable-background:new 0 0 50 50;" xml:space="preserve">
<polyline style="fill:none;stroke:#FFFFFF;stroke-width:3;stroke-linecap:round;stroke-linejoin:round;stroke-miterlimit:10;" points="
	1.366,23.85 24.74,6.384 47.823,23.473 "/>
<polyline style="fill:#FFFFFF;stroke:#FFFFFF;stroke-linecap:round;stroke-linejoin:round;stroke-miterlimit:10;" points="34,13.5 
	34,9 43,9 43,19.5 "/>
<path style="fill:#FFFFFF;" d="M4.5,25.954l19.602-15.083L43.5,25.702c0,0,0,8.188,0,9.491c0,1.773-0.445,9.307-5.566,9.307
	c-5.118,0-7.434,0-7.434,0s0-9.007,0-11.214c0-2.733-0.857-6.626-6.858-6.626c-6.624,0-7.142,4.655-7.142,6.8
	c0,1.333,0,11.04,0,11.04s-3.523,0-4.896,0c-1.372,0-7.104-2.48-7.104-8.805S4.5,25.954,4.5,25.954z"/>
</svg>
