<?xml version="1.0" encoding="utf-8"?>
<!-- Generator: Adobe Illustrator 16.0.4, SVG Export Plug-In . SVG Version: 6.00 Build 0)  -->
<!DOCTYPE svg PUBLIC "-//W3C//DTD SVG 1.1//EN" "http://www.w3.org/Graphics/SVG/1.1/DTD/svg11.dtd">
<svg version="1.1" id="Layer_1" xmlns="http://www.w3.org/2000/svg" xmlns:xlink="http://www.w3.org/1999/xlink" x="0px" y="0px"
	 width="100px" height="100px" viewBox="0 0 100 100" style="enable-background:new 0 0 100 100;" xml:space="preserve">
<g>
	<g>
		
			<polyline style="fill:none;stroke:#EC9022;stroke-width:3;stroke-linecap:round;stroke-linejoin:round;stroke-miterlimit:10;" points="
			49.023,43.961 40.692,35.783 33.08,43.883 		"/>
		
			<line style="fill:none;stroke:#EC9022;stroke-width:3;stroke-linecap:round;stroke-linejoin:round;stroke-miterlimit:10;" x1="40.923" y1="64.171" x2="40.923" y2="36.352"/>
	</g>
	<g>
		
			<polyline style="fill:none;stroke:#EC9022;stroke-width:3;stroke-linecap:round;stroke-linejoin:round;stroke-miterlimit:10;" points="
			50.98,55.996 59.312,64.171 66.923,56.074 		"/>
		
			<line style="fill:none;stroke:#EC9022;stroke-width:3;stroke-linecap:round;stroke-linejoin:round;stroke-miterlimit:10;" x1="59.079" y1="35.783" x2="59.079" y2="63.603"/>
	</g>
	<path style="fill:#EC9022;" d="M25.681,85.215V13.354c0-1.508,0.909-2.417,2.418-2.417h43.802c1.513,0,2.419,0.909,2.419,2.417
		v71.861c0,1.51-0.906,2.418-2.419,2.418H28.1C26.59,87.633,25.681,86.725,25.681,85.215z M81.571,17.34V5.252
		c0-3.021-1.809-4.832-4.833-4.832H23.264c-3.024,0-4.834,1.811-4.834,4.832V94.7c0,3.023,1.81,4.835,4.834,4.835h16.92l8.461-0.001
		h28.093c3.024,0,4.833-1.811,4.833-4.836V25.804 M43.98,4.307h11.935c0.822,0,1.491,0.668,1.491,1.491
		c0,0.824-0.669,1.493-1.491,1.493H43.98c-0.821,0-1.49-0.668-1.49-1.493C42.49,4.975,43.159,4.307,43.98,4.307z"/>
</g>
<g id="_x24_-Sack">
	<path style="fill:#EC9022;stroke:#EC9022;stroke-miterlimit:10;" d="M156.87,65.322c0-6.688-5.418-9.553-10.35-11.781V38.577
		c3.182,0.636,5.25,2.229,5.889,3.184c0.795,1.114,2.229,1.273,3.342,0.638c1.119-0.797,1.277-2.23,0.637-3.345
		c-1.59-2.227-4.936-4.615-9.867-5.253v-5.89c0-1.275-1.115-2.39-2.39-2.39c-1.275,0-2.389,1.115-2.389,2.39v5.73
		c-5.89,0.954-10.348,5.413-10.348,10.986c0,6.843,5.412,9.867,10.348,11.937v14.807c-3.342-0.637-5.254-2.229-6.049-3.184
		c-0.797-1.115-2.229-1.436-3.342-0.639c-1.115,0.797-1.436,2.23-0.639,3.346c1.432,2.227,4.936,4.777,9.869,5.414v5.729
		c0,1.277,1.113,2.387,2.392,2.387c1.271,0,2.387-1.109,2.387-2.387v-5.729C152.409,75.352,156.87,70.895,156.87,65.322z
		 M136.171,44.627c0-2.55,2.069-5.255,5.571-6.05v12.735C138.24,49.56,136.171,47.809,136.171,44.627z M146.521,71.371V58.795
		c3.502,1.752,5.568,3.344,5.568,6.527C152.089,67.867,150.022,70.574,146.521,71.371z"/>
	<path style="fill:#EC9022;stroke:#EC9022;stroke-miterlimit:10;" d="M150.657,11.036c-0.479,0-0.955-0.158-1.434-0.478
		c-1.111-0.795-1.271-2.228-0.477-3.343l4.457-5.888l-8.757,0.954c-0.157,0-0.316,0-0.474,0l-8.758-0.954l4.458,5.888
		c0.796,1.115,0.637,2.548-0.479,3.343c-1.113,0.796-2.547,0.638-3.343-0.477l-7.801-10.349c-0.638-0.793-0.638-1.75-0.159-2.545
		c0.479-0.796,1.432-1.274,2.389-1.274l14.009,1.593l14.008-1.593c0.959-0.158,1.912,0.32,2.391,1.274
		c0.477,0.955,0.477,1.91-0.158,2.545l-7.803,10.349C152.089,10.718,151.292,11.036,150.657,11.036z"/>
	<path style="fill:#EC9022;stroke:#EC9022;stroke-miterlimit:10;" d="M144.131,93.18c-16.238,0-34.547,0-34.547-23.719
		c0-22.126,15.443-55.879,34.547-55.879c19.106,0,34.544,33.752,34.544,55.879C178.675,93.18,160.368,93.18,144.131,93.18z
		 M144.131,18.359c-7.004,0-14.486,6.525-20.537,17.671c-5.57,10.346-9.074,23.403-9.074,33.271
		c-0.158,18.15,11.145,19.104,29.611,19.104c18.464,0,29.771-0.953,29.771-18.943c0-10.027-3.504-23.084-9.076-33.271
		C158.618,24.885,151.138,18.359,144.131,18.359z"/>
</g>
</svg>
