<?xml version="1.0" encoding="utf-8"?>
<!-- Generator: Adobe Illustrator 16.0.4, SVG Export Plug-In . SVG Version: 6.00 Build 0)  -->
<!DOCTYPE svg PUBLIC "-//W3C//DTD SVG 1.1//EN" "http://www.w3.org/Graphics/SVG/1.1/DTD/svg11.dtd">
<svg version="1.1" id="Layer_1" xmlns="http://www.w3.org/2000/svg" xmlns:xlink="http://www.w3.org/1999/xlink" viewBox="0 0 182.243 225.87" style="enable-background:new 0 0 182.243 225.87;"
	 xml:space="preserve">

<g>
	<g>
		<g>
			<path style="fill:#FFFFFF;" d="M22.261,225.866c3.042-0.073,4.011-2.308,4.185-2.695c0.174-0.396,8.813-23.637,8.813-23.637
				c0.042-0.098,0.058-0.199,0.058-0.294c-0.002-0.476-0.457-0.675-0.791-0.675h-5.017c-0.443,0-0.861,0.176-0.985,0.532
				c-0.112,0.275-6.247,18.38-6.247,18.38c0.009,0.011-6.168-18.104-6.284-18.38c-0.123-0.351-0.536-0.532-0.977-0.532H9.999
				c-0.333,0-0.786,0.199-0.792,0.675c0,0.095,0.021,0.196,0.061,0.294c0,0,8.671,23.323,8.811,23.637
				C18.22,223.486,19.226,225.792,22.261,225.866z"/>
			<path style="fill:#FFFFFF;" d="M61.106,208.412c0-1.124,0.39-1.828,0.997-2.462c0.559-0.586,1.48-0.86,2.238-0.86l6.831,0.005
				c0.315,0,0.65-0.053,0.933-0.299c0.292-0.257,0.348-0.613,0.348-0.845l0.014-4.326c0-0.235-0.058-0.585-0.348-0.853
				c-0.235-0.199-0.5-0.265-0.765-0.277l0.003-0.013h-6.336c-3.044,0-5.778,0.649-7.648,2.348c-1.868,1.699-2.901,4.38-2.898,8.163
				v15.479c0,0.318,0.051,0.658,0.295,0.933c0.259,0.3,0.612,0.351,0.845,0.351l4.333,0.014c0.23,0,0.578-0.051,0.845-0.345
				c0.203-0.231,0.27-0.508,0.282-0.774l0.008,0.016L61.106,208.412z"/>
			<path style="fill:#FFFFFF;" d="M38.198,191.643c0-0.314,0.055-0.652,0.294-0.934c0.27-0.295,0.618-0.35,0.854-0.35h4.325
				c0.232,0,0.589,0.053,0.849,0.35c0.244,0.28,0.294,0.619,0.294,0.932v6.961l5.537-0.008c0.316,0,0.647,0.054,0.933,0.292
				c0.293,0.263,0.348,0.61,0.348,0.843v4.293c0,0.23-0.055,0.574-0.348,0.836c-0.286,0.242-0.621,0.294-0.936,0.294l-5.534-0.005
				v10.805c0,1.122,0.38,1.821,0.985,2.453c0.555,0.577,1.469,0.867,2.236,0.867l2.297,0.01c0.314,0,0.663,0.027,0.939,0.275
				c0.299,0.253,0.348,0.609,0.348,0.848l0.017,4.327c0,0.231-0.052,0.579-0.347,0.845c-0.233,0.198-0.506,0.269-0.768,0.289
				l-1.807,0.004c-3.043-0.004-5.779-0.641-7.646-2.345c-1.87-1.699-2.873-4.382-2.869-8.161V191.643z"/>
		</g>
		<g>
			<path style="fill:#FFFFFF;" d="M91.293,200.964c4.343,0,7.911,2.411,9.533,6.462c0.046,0.111,0.165,0.188,0.291,0.188h1.982
				c0.099,0,0.194-0.055,0.257-0.128c0.058-0.077,0.075-0.188,0.041-0.282c-1.816-5.395-6.453-8.747-12.104-8.747
				c-7.203,0-13.06,6.193-13.06,13.801c0,7.506,5.857,13.611,13.06,13.611c5.702,0,10.337-3.349,12.104-8.749
				c0.034-0.091,0.017-0.196-0.045-0.279c-0.059-0.078-0.154-0.128-0.253-0.128h-1.933c-0.133,0-0.244,0.08-0.295,0.201
				c-1.519,4.068-5.1,6.497-9.579,6.497c-5.845,0-10.597-5.001-10.597-11.153C80.697,206.036,85.448,200.964,91.293,200.964z"/>
			<path style="fill:#FFFFFF;" d="M162.571,198.458c-3.903,0-7.083,1.931-8.644,5.208c-1.651-3.233-5-5.208-8.918-5.208
				c-3.087,0-5.778,1.246-7.529,3.449v-2.493c0-0.174-0.139-0.311-0.312-0.311h-1.832c-0.174,0-0.314,0.137-0.314,0.311v25.55
				c0,0.179,0.141,0.311,0.314,0.311h1.832c0.174,0,0.312-0.132,0.312-0.311v-16.467c0-4.364,3.162-7.532,7.529-7.532
				c4.387,0,7.576,3.168,7.576,7.532v16.467c0,0.179,0.137,0.311,0.311,0.311h1.836c0.174,0,0.312-0.132,0.312-0.311v-16.467
				c0-4.364,3.165-7.532,7.527-7.532c4.389,0,7.575,3.168,7.575,7.532v16.467c0,0.179,0.142,0.311,0.311,0.311h1.838
				c0.176,0,0.309-0.132,0.309-0.311v-16.467C172.603,202.68,168.387,198.458,162.571,198.458z"/>
			<path style="fill:#FFFFFF;" d="M118.786,198.458c-7.567,0-13.702,6.127-13.702,13.706c0,7.571,6.135,13.706,13.702,13.706
				c7.573,0,13.71-6.135,13.71-13.706C132.496,204.584,126.359,198.458,118.786,198.458z M118.786,223.457
				c-6.239,0-11.294-5.055-11.294-11.293c0-6.234,5.055-11.297,11.294-11.297c6.24,0,11.294,5.062,11.294,11.297
				C130.08,218.402,125.026,223.457,118.786,223.457z"/>
		</g>
		<path style="fill:#FFFFFF;" d="M75.774,222.563c0-1.826-1.481-3.309-3.308-3.309c-1.825,0-3.312,1.482-3.312,3.309
			c0,1.825,1.487,3.307,3.312,3.307C74.292,225.87,75.774,224.388,75.774,222.563z"/>
	</g>
	<g>
		<path style="fill:#0687AE;" d="M73.72,26.631L39.703,54.817c2.196,7.644,3.839,15.945,4.593,24.822
			c2.864-0.32,5.671-0.942,8.396-1.855l21.371-38.467C74.058,35.193,73.938,30.966,73.72,26.631z"/>
		<path style="fill:#04747F;" d="M66.686,66.261c2.563-6.002,4.947-11.582,7.168-16.802c0.143-3.308,0.215-6.685,0.21-10.143
			L52.693,77.784c1.197-0.405,2.397-0.861,3.555-1.38l-8.739,15.113l0.033,0.01c-0.452,0.754-0.906,1.506-1.316,2.289
			c0.728,3.713,1.618,7.228,2.658,10.543C54.57,93.285,60.532,80.66,66.686,66.261z"/>
		<path style="fill:#693E91;" d="M73.854,49.459c-2.221,5.22-4.605,10.8-7.168,16.802C60.532,80.66,54.57,93.285,48.883,104.358
			c0.451,1.45,0.923,2.851,1.438,4.227c5.763-11.519,12.777-23.571,21.25-35.484C72.711,65.708,73.497,57.823,73.854,49.459z"/>
		<path style="fill:#6F2A82;" d="M50.321,108.584c1.86,5.053,4.074,9.633,6.563,13.788c6.078-13.007,11.611-29.379,14.687-49.272
			C63.098,85.013,56.083,97.066,50.321,108.584z"/>
		<path style="fill:#8D1A4F;" d="M144.846,69.535l18.409-32.419c-0.022-0.258-0.05-0.507-0.068-0.759
			c-5.401,5.802-11.118,11.838-17.101,18.039C145.264,59.444,144.869,64.503,144.846,69.535z"/>
		<path style="fill:#E21E26;" d="M145.48,81.573l12.236-21.21l-0.012-0.013c0.436-0.742,0.89-1.489,1.298-2.266
			c3.415-6.718,4.755-13.958,4.253-20.969l-18.409,32.419C144.831,73.58,145.06,77.602,145.48,81.573z"/>
		<path style="fill:#7B1443;" d="M163.187,36.356c-0.479-5.155-1.943-10.171-4.312-14.763c-6.971,10.52-10.958,21.626-12.788,32.801
			C152.069,48.194,157.786,42.158,163.187,36.356z"/>
		<path style="fill:#C8D53E;" d="M21.644,4.45c-1.929,0.987-3.777,2.139-5.535,3.44c0.919,1.214,1.895,2.539,2.908,3.981
			L21.644,4.45z"/>
		<path style="fill:#009A93;" d="M50.588,1.438c-0.144-0.04-0.279-0.074-0.42-0.108L29.75,29.682
			c1.991,3.896,3.917,8.135,5.704,12.671l6.027-14.655L52.089,1.889C51.585,1.729,51.085,1.581,50.588,1.438z"/>
		<path style="fill:#119ED9;" d="M58.084,4.359c-1.956-1.004-3.965-1.82-5.995-2.47L41.48,27.698l-6.027,14.655
			c0.172,0.427,0.337,0.844,0.502,1.277c0.178,0.479,0.361,0.971,0.537,1.454L70.355,14.05C67.042,10.155,62.933,6.83,58.084,4.359z
			"/>
		<path style="fill:#74BB6F;" d="M29.75,29.682L50.168,1.33C40.446-1.249,30.286,0,21.644,4.45l-2.626,7.421
			C22.368,16.63,26.138,22.603,29.75,29.682z"/>
		<path style="fill:#0276A7;" d="M39.703,54.817L73.72,26.631c-0.165-2.95-0.393-5.975-0.659-9.02
			c-0.828-1.239-1.737-2.418-2.706-3.561L36.492,45.084C37.649,48.194,38.734,51.44,39.703,54.817z"/>
		<path style="fill:#02627E;" d="M46.226,93.815c-0.052,0.086-0.101,0.165-0.145,0.256c-3.773,7.411-5.014,15.45-4.045,23.121
			c2.234-4.026,4.514-8.294,6.848-12.834C47.844,101.042,46.954,97.528,46.226,93.815z"/>
		<path style="fill:#4C3D90;" d="M48.883,104.358c-2.334,4.54-4.614,8.808-6.848,12.834c0.275,2.141,0.721,4.245,1.332,6.308
			c2.092-4.831,4.392-9.814,6.954-14.915C49.806,107.208,49.334,105.808,48.883,104.358z"/>
		<path style="fill:#02627E;" d="M33.023,48.267L11.511,67.984c1.84,1.877,3.903,3.583,6.151,5.095l7.832-6.487L33.023,48.267z"/>
		<path style="fill:#015578;" d="M17.662,73.079c1.328,0.883,2.705,1.71,4.158,2.446l3.673-8.934L17.662,73.079z"/>
		<path style="fill:#04747F;" d="M39.703,54.817l-10.707,8.866l-3.502,2.908l-3.673,8.934c0.873,0.451,1.75,0.844,2.647,1.227
			c6.445,2.715,13.257,3.616,19.829,2.887C43.542,70.762,41.899,62.461,39.703,54.817z"/>
		<path style="fill:#602770;" d="M50.321,108.584c-2.562,5.101-4.861,10.084-6.954,14.915c1.328,4.509,3.444,8.781,6.279,12.594
			c2.419-4.074,4.866-8.64,7.238-13.721C54.395,118.217,52.181,113.637,50.321,108.584z"/>
		<path style="fill:#008361;" d="M35.453,42.353c-1.786-4.536-3.712-8.775-5.704-12.671L6.571,61.863
			c1.426,2.189,3.076,4.237,4.94,6.121l21.512-19.717L35.453,42.353z"/>
		<path style="fill:#B9D26B;" d="M16.109,7.89c-4.792,3.555-8.854,8.239-11.746,13.914C-1.306,32.916-1.261,45.445,3.4,56.038
			l15.617-44.167C18.003,10.429,17.028,9.104,16.109,7.89z"/>
		<path style="fill:#02627E;" d="M35.955,43.63c-0.165-0.434-0.33-0.851-0.502-1.277l-2.43,5.914l1.94-1.773l1.529-1.409
			C36.316,44.601,36.133,44.11,35.955,43.63z"/>
		<path style="fill:#43B285;" d="M19.017,11.872L3.4,56.038c0.881,2.024,1.943,3.97,3.17,5.825L29.75,29.682
			C26.138,22.603,22.368,16.63,19.017,11.872z"/>
		<path style="fill:#015578;" d="M36.492,45.084l-1.529,1.409l-1.94,1.773l-7.529,18.324l3.502-2.908l10.707-8.866
			C38.734,51.44,37.649,48.194,36.492,45.084z"/>
		<path style="fill:#4E0836;" d="M121.628,122.863l5.221-9.042c-1.032,0.56-2.014,1.058-2.933,1.479L121.628,122.863z"/>
		<path style="fill:#4E0836;" d="M140.66,59.974l-10.975,36.275l15.161-26.714c0.022-5.031,0.418-10.091,1.24-15.14
			C144.306,56.244,142.497,58.103,140.66,59.974z"/>
		<path style="fill:#C02026;" d="M144.846,69.535l-15.161,26.714l-5.769,19.05c0.919-0.421,1.9-0.919,2.933-1.479l18.631-32.248
			C145.06,77.602,144.831,73.58,144.846,69.535z"/>
		<path style="fill:#660B35;" d="M146.086,54.395c1.83-11.175,5.817-22.282,12.788-32.801c-1.254-2.424-2.766-4.741-4.506-6.886
			L140.66,59.974C142.497,58.103,144.306,56.244,146.086,54.395z"/>
		<path style="fill:#04747F;" d="M74.064,39.317l4.74-8.527c-0.532-2.253-1.25-4.462-2.169-6.584l-2.915,2.426
			C73.938,30.966,74.058,35.193,74.064,39.317z"/>
		<path style="fill:#02627E;" d="M73.854,49.459c2.082-4.894,4.004-9.429,5.806-13.686c-0.183-1.683-0.474-3.349-0.855-4.984
			l-4.74,8.527C74.069,42.774,73.996,46.152,73.854,49.459z"/>
		<path style="fill:#A81D3D;" d="M79.528,117.667c13.458-11.508,26.917-23.995,39.575-36.267c0,0,0.01-0.005,0.016-0.018
			c0.006-0.016,0.01-0.04,0,0l0,0c6.75-22.971,17.285-50.844,18.74-62.545c0.279-2.201,0.268-4.341,0.039-6.418
			c-14.271,2.516-24.01,8.386-32.138,16.293c-9.592,24.148-19.818,52.016-23.648,69.843
			C80.802,104.631,79.549,111.396,79.528,117.667z"/>
		<path style="fill:#4C3D90;" d="M71.571,73.101c1.99-2.806,4.05-5.596,6.207-8.375c5.432-6.994,10.064-13.788,14.654-20.081
			c3.698-14.945,5.472-26.783,6.187-35.996c-3.619,2.863-6.79,6.384-9.294,10.515L89.3,19.135l-9.636,16.707
			c0-0.021-0.005-0.05-0.005-0.068c-1.802,4.257-3.725,8.792-5.806,13.686C73.497,57.823,72.711,65.708,71.571,73.101z"/>
		<path style="fill:#511044;" d="M67.487,127.694c4.016-3.262,8.037-6.617,12.042-10.026c0.021-6.271,1.274-13.036,2.584-19.112
			c3.83-17.827,14.056-45.694,23.648-69.843c-4.811,4.683-9.044,10.091-13.329,15.933C89.3,57.356,84.788,72.319,78.386,89.81
			C72.928,104.733,69.476,117.233,67.487,127.694z"/>
		<path style="fill:#E21E26;" d="M119.119,81.39L119.119,81.39c-0.016,0.01-0.023,0.021-0.023,0.021
			c-12.65,12.261-26.109,24.748-39.567,36.256c-0.024,4.354,0.565,8.466,2.128,11.943c15.05-15.276,27.512-32.105,37.433-48.183
			C119.089,81.428,119.103,81.412,119.119,81.39z"/>
		<path style="fill:#602770;" d="M78.386,89.81C84.788,72.319,89.3,57.356,92.431,44.645c-4.59,6.293-9.222,13.087-14.654,20.081
			c-2.157,2.778-4.216,5.568-6.207,8.375c-3.076,19.893-8.609,36.265-14.687,49.272c1.919,3.202,3.996,6.143,6.214,8.842
			c1.462-1.163,2.927-2.339,4.389-3.521C69.476,117.233,72.928,104.733,78.386,89.81z"/>
		<path style="fill:#7B1443;" d="M137.859,18.837c-1.455,11.701-11.99,39.574-18.74,62.545c0.017-0.016,0.022-0.04,0.022-0.04
			c17.314-28.192,27.464-54.965,32.307-69.854c-0.12-0.12-0.251-0.233-0.373-0.349c-4.777,0.144-9.171,0.571-13.177,1.278
			C138.126,14.497,138.138,16.636,137.859,18.837z"/>
		<path style="fill:#6F2A82;" d="M63.098,131.214c1.033,1.272,2.104,2.481,3.207,3.646c0.318-2.271,0.701-4.655,1.182-7.166
			C66.025,128.875,64.56,130.051,63.098,131.214z"/>
		<path style="fill:#7B1443;" d="M67.487,127.694c-0.48,2.511-0.863,4.896-1.182,7.166c1.574,1.683,3.199,3.258,4.878,4.736
			c3.627-3.255,7.118-6.582,10.474-9.985c-1.563-3.478-2.153-7.589-2.128-11.943C75.524,121.077,71.502,124.432,67.487,127.694z"/>
		<path style="fill:#89181A;" d="M105.76,28.712c4.175-10.508,8.226-20.286,11.581-28.238c-6.807,1.055-13.276,3.856-18.724,8.174
			c-0.715,9.213-2.488,21.051-6.187,35.996C96.716,38.803,100.95,33.395,105.76,28.712z"/>
		<path style="fill:#89181A;" d="M151.075,11.141c-2.759-2.652-5.948-4.95-9.536-6.782c-2.254-1.152-4.563-2.059-6.902-2.745
			c1.637,3.32,2.842,6.942,3.262,10.805C141.904,11.712,146.297,11.285,151.075,11.141z"/>
		<path style="fill:#E21E26;" d="M137.898,12.419c-0.42-3.863-1.625-7.485-3.262-10.805c-5.723-1.687-11.622-2.025-17.295-1.14
			c-3.355,7.952-7.406,17.73-11.581,28.238C113.888,20.805,123.626,14.935,137.898,12.419z"/>
		<path style="fill:#015578;" d="M76.635,24.206c-0.98-2.299-2.173-4.512-3.574-6.594c0.267,3.045,0.494,6.07,0.659,9.02
			L76.635,24.206z"/>
		<path style="fill:#511044;" d="M56.884,122.373c-2.372,5.081-4.818,9.646-7.238,13.721c0.874,1.167,1.798,2.285,2.802,3.365
			c3.545-2.666,7.097-5.414,10.649-8.244C60.88,128.515,58.804,125.575,56.884,122.373z"/>
		<path style="fill:#7B1443;" d="M66.305,134.86c-1.103-1.164-2.174-2.373-3.207-3.646c-3.553,2.83-7.104,5.578-10.649,8.244
			c2.784,2.983,6.075,5.579,9.824,7.66c1.02-0.821,2.054-1.638,3.062-2.469C65.489,141.636,65.81,138.378,66.305,134.86z"/>
		<path style="fill:#8D1A4F;" d="M66.305,134.86c-0.495,3.519-0.816,6.776-0.97,9.79c1.986-1.66,3.931-3.345,5.848-5.054
			C69.504,138.118,67.879,136.542,66.305,134.86z"/>
		<path style="fill:#A41E22;" d="M119.119,81.383c-0.013,0.045-0.006,0.029,0,0.012c-0.016,0.023-0.023,0.029-0.023,0.029
			c-9.927,16.081-22.389,32.91-37.438,48.187c2.237,4.992,6.497,8.683,13.987,9.865c3.36,0.529,6.674,0.158,9.99-0.868l12.24-21.553
			c-0.033,0-0.056,0-0.085,0C110.464,116.884,113.433,100.819,119.119,81.383z"/>
		<path style="fill:#5D0836;" d="M117.875,117.055l-12.24,21.553c3.108-0.959,6.217-2.511,9.359-4.42
			c0.246-0.368,0.486-0.731,0.721-1.113l0.006,0.018l5.908-10.229l2.288-7.563C121.431,116.446,119.381,117.067,117.875,117.055z"/>
		<path style="fill:#660B35;" d="M119.119,81.383c-5.686,19.437-8.654,35.501-1.329,35.672c0.029,0,0.052,0,0.085,0l11.811-20.806
			l10.975-36.275C133.775,67.024,126.535,74.19,119.119,81.383z"/>
		<path style="fill:#A41E22;" d="M123.917,115.299l5.769-19.05l-11.811,20.806C119.381,117.067,121.431,116.446,123.917,115.299z"/>
		<path style="fill:#4E0836;" d="M119.119,81.383C119.141,81.367,119.152,81.349,119.119,81.383
			c7.416-7.192,14.656-14.359,21.541-21.409l13.709-45.267c-0.914-1.119-1.882-2.191-2.921-3.218
			c-4.843,14.889-14.992,41.661-32.296,69.854C119.152,81.343,119.148,81.343,119.119,81.383z"/>
		<path style="fill:#4E0836;" d="M100.693,147.314c5.641-3.054,10.588-7.498,14.301-13.126c-3.143,1.909-6.251,3.461-9.359,4.42
			L100.693,147.314z"/>
		<path style="fill:#5D0836;" d="M95.644,139.476c-7.49-1.183-11.75-4.873-13.987-9.865c-3.355,3.403-6.847,6.73-10.474,9.985
			c5.614,4.973,11.724,8.836,17.941,11.859c4.039-0.778,7.939-2.174,11.568-4.142l4.941-8.706
			C102.318,139.634,99.004,140.005,95.644,139.476z"/>
		<path style="fill:#511044;" d="M62.273,147.119c0.413,0.241,0.845,0.475,1.271,0.696c0.556,0.279,1.107,0.541,1.667,0.793
			c0.017-1.271,0.051-2.579,0.125-3.958C64.327,145.481,63.292,146.297,62.273,147.119z"/>
		<path style="fill:#660B35;" d="M65.335,144.65c-0.074,1.379-0.109,2.687-0.125,3.958c7.753,3.518,16.077,4.346,23.915,2.848
			c-6.218-3.023-12.328-6.887-17.941-11.859C69.267,141.305,67.321,142.99,65.335,144.65z"/>
		<path style="fill:#693E91;" d="M163.269,114.192c-10.477,0-18.963,8.492-18.963,18.963c0,10.484,8.486,18.98,18.963,18.98
			c10.474,0,18.974-8.496,18.974-18.98C182.243,122.684,173.743,114.192,163.269,114.192z"/>
	</g>
</g>
</svg>
