<?xml version="1.0" encoding="utf-8"?>
<!-- Generator: Adobe Illustrator 16.0.4, SVG Export Plug-In . SVG Version: 6.00 Build 0)  -->
<!DOCTYPE svg PUBLIC "-//W3C//DTD SVG 1.1//EN" "http://www.w3.org/Graphics/SVG/1.1/DTD/svg11.dtd">
<svg version="1.1" id="Layer_1" xmlns="http://www.w3.org/2000/svg" xmlns:xlink="http://www.w3.org/1999/xlink" x="0px" y="0px"
	 width="50px" height="50px" viewBox="0 0 50 50" style="enable-background:new 0 0 50 50;" xml:space="preserve">
<g>
	<g>
		<path style="fill:#0687AE;" d="M20.227,11.437l-9.33,7.729c0.602,2.097,1.054,4.374,1.259,6.809
			c0.787-0.086,1.556-0.258,2.306-0.508l5.859-10.55C20.319,13.785,20.287,12.626,20.227,11.437z"/>
		<path style="fill:#04747F;" d="M18.297,22.307c0.704-1.647,1.357-3.178,1.966-4.61c0.039-0.907,0.06-1.833,0.058-2.781
			l-5.859,10.55c0.326-0.112,0.655-0.236,0.973-0.38l-2.397,4.146l0.01,0.002c-0.125,0.208-0.249,0.415-0.361,0.63
			c0.199,1.018,0.444,1.981,0.729,2.891C14.974,29.718,16.61,26.256,18.297,22.307z"/>
		<path style="fill:#693E91;" d="M20.263,17.697c-0.608,1.432-1.262,2.962-1.966,4.61c-1.687,3.949-3.323,7.411-4.881,10.448
			c0.124,0.398,0.253,0.782,0.394,1.16c1.581-3.16,3.505-6.467,5.83-9.731C19.949,22.154,20.167,19.992,20.263,17.697z"/>
		<path style="fill:#6F2A82;" d="M13.809,33.915c0.51,1.386,1.118,2.641,1.801,3.782c1.667-3.569,3.185-8.061,4.028-13.514
			C17.314,27.448,15.39,30.755,13.809,33.915z"/>
		<path style="fill:#8D1A4F;" d="M39.736,23.205l5.049-8.892c-0.006-0.071-0.014-0.139-0.02-0.209
			c-1.48,1.592-3.049,3.248-4.689,4.949C39.852,20.437,39.742,21.824,39.736,23.205z"/>
		<path style="fill:#E21E26;" d="M39.908,26.506l3.357-5.818l-0.004-0.002c0.121-0.204,0.244-0.41,0.355-0.623
			c0.938-1.843,1.305-3.827,1.168-5.75l-5.049,8.892C39.73,24.313,39.795,25.417,39.908,26.506z"/>
		<path style="fill:#7B1443;" d="M44.766,14.104c-0.131-1.414-0.533-2.789-1.182-4.049c-1.914,2.886-3.006,5.932-3.508,8.998
			C41.717,17.351,43.285,15.695,44.766,14.104z"/>
		<path style="fill:#C8D53E;" d="M5.945,5.353C5.414,5.624,4.907,5.939,4.427,6.297C4.679,6.63,4.945,6.994,5.224,7.388L5.945,5.353
			z"/>
		<path style="fill:#009A93;" d="M13.882,4.526c-0.039-0.01-0.075-0.02-0.113-0.029l-5.603,7.777
			c0.548,1.067,1.076,2.231,1.565,3.475l1.652-4.019l2.911-7.079C14.158,4.606,14.02,4.566,13.882,4.526z"/>
		<path style="fill:#119ED9;" d="M15.94,5.327c-0.539-0.274-1.088-0.499-1.645-0.676l-2.911,7.079l-1.652,4.019
			c0.048,0.117,0.092,0.231,0.136,0.35c0.05,0.133,0.1,0.267,0.148,0.4l9.287-8.513C18.396,6.917,17.269,6.005,15.94,5.327z"/>
		<path style="fill:#74BB6F;" d="M8.166,12.274l5.603-7.777C11.101,3.79,8.313,4.132,5.945,5.353L5.224,7.388
			C6.142,8.694,7.177,10.332,8.166,12.274z"/>
		<path style="fill:#0276A7;" d="M10.897,19.167l9.33-7.729c-0.044-0.81-0.108-1.64-0.18-2.475C19.819,8.622,19.57,8.3,19.303,7.986
			l-9.287,8.513C10.333,17.351,10.631,18.239,10.897,19.167z"/>
		<path style="fill:#02627E;" d="M12.686,29.864c-0.014,0.022-0.028,0.046-0.04,0.068c-1.035,2.033-1.375,4.238-1.11,6.343
			c0.613-1.104,1.239-2.274,1.879-3.521C13.13,31.846,12.885,30.882,12.686,29.864z"/>
		<path style="fill:#4C3D90;" d="M13.416,32.755c-0.641,1.246-1.267,2.416-1.879,3.521c0.075,0.587,0.199,1.165,0.366,1.729
			c0.574-1.324,1.204-2.691,1.907-4.09C13.669,33.537,13.539,33.153,13.416,32.755z"/>
		<path style="fill:#02627E;" d="M9.065,17.371l-5.901,5.407c0.505,0.514,1.069,0.982,1.688,1.397l2.146-1.778L9.065,17.371z"/>
		<path style="fill:#015578;" d="M4.853,24.175c0.363,0.243,0.741,0.47,1.139,0.671l1.008-2.449L4.853,24.175z"/>
		<path style="fill:#04747F;" d="M10.897,19.167L7.959,21.6l-0.96,0.798l-1.008,2.449c0.241,0.124,0.479,0.231,0.728,0.338
			c1.766,0.744,3.635,0.989,5.437,0.791C11.951,23.54,11.499,21.264,10.897,19.167z"/>
		<path style="fill:#602770;" d="M13.809,33.915c-0.704,1.398-1.333,2.766-1.907,4.09c0.363,1.237,0.946,2.409,1.722,3.455
			c0.663-1.117,1.334-2.369,1.986-3.763C14.927,36.556,14.319,35.301,13.809,33.915z"/>
		<path style="fill:#008361;" d="M9.731,15.749c-0.49-1.244-1.018-2.407-1.565-3.475L1.809,21.1
			c0.391,0.601,0.845,1.163,1.355,1.679l5.901-5.407L9.731,15.749z"/>
		<path style="fill:#B9D26B;" d="M4.427,6.297c-1.316,0.974-2.43,2.259-3.222,3.815c-1.556,3.048-1.543,6.485-0.265,9.391
			L5.224,7.388C4.945,6.994,4.679,6.63,4.427,6.297z"/>
		<path style="fill:#02627E;" d="M9.868,16.099c-0.044-0.119-0.088-0.233-0.136-0.35l-0.666,1.623l0.532-0.488l0.418-0.384
			C9.967,16.366,9.918,16.231,9.868,16.099z"/>
		<path style="fill:#43B285;" d="M5.224,7.388L0.94,19.502c0.242,0.554,0.533,1.089,0.869,1.597l6.357-8.826
			C7.177,10.332,6.142,8.694,5.224,7.388z"/>
		<path style="fill:#015578;" d="M10.016,16.499l-0.418,0.384l-0.532,0.488l-2.066,5.026l0.96-0.798l2.938-2.433
			C10.631,18.239,10.333,17.351,10.016,16.499z"/>
		<path style="fill:#4E0836;" d="M33.367,37.831l1.432-2.48c-0.283,0.155-0.551,0.291-0.803,0.406L33.367,37.831z"/>
		<path style="fill:#4E0836;" d="M38.586,20.582l-3.01,9.949l4.16-7.327c0.006-1.38,0.115-2.768,0.34-4.152
			C39.588,19.559,39.092,20.068,38.586,20.582z"/>
		<path style="fill:#C02026;" d="M39.736,23.205l-4.16,7.327l-1.58,5.226c0.252-0.115,0.52-0.251,0.803-0.406l5.109-8.845
			C39.795,25.417,39.73,24.313,39.736,23.205z"/>
		<path style="fill:#660B35;" d="M40.076,19.052c0.502-3.066,1.594-6.112,3.508-8.998c-0.346-0.665-0.76-1.299-1.236-1.887
			l-3.762,12.415C39.092,20.068,39.588,19.559,40.076,19.052z"/>
		<path style="fill:#04747F;" d="M20.321,14.917l1.3-2.34c-0.147-0.617-0.342-1.223-0.595-1.805l-0.8,0.666
			C20.287,12.626,20.319,13.785,20.321,14.917z"/>
		<path style="fill:#02627E;" d="M20.263,17.697c0.572-1.342,1.1-2.586,1.594-3.752c-0.051-0.461-0.131-0.919-0.235-1.368l-1.3,2.34
			C20.323,15.864,20.302,16.79,20.263,17.697z"/>
		<path style="fill:#A81D3D;" d="M21.819,36.406c3.692-3.157,7.384-6.582,10.856-9.947c0,0,0.002-0.002,0.004-0.006s0.002-0.01,0,0
			l0,0c1.852-6.3,4.74-13.945,5.139-17.153c0.076-0.604,0.074-1.19,0.012-1.761c-3.916,0.69-6.584,2.3-8.814,4.469
			c-2.631,6.623-5.438,14.266-6.487,19.155C22.17,32.83,21.827,34.687,21.819,36.406z"/>
		<path style="fill:#4C3D90;" d="M19.639,24.184c0.546-0.771,1.109-1.537,1.701-2.3c1.491-1.917,2.76-3.781,4.021-5.506
			c1.013-4.1,1.499-7.346,1.694-9.873c-0.99,0.785-1.862,1.751-2.547,2.884L24.501,9.38l-2.644,4.583
			c0-0.006-0.001-0.015-0.001-0.019c-0.494,1.167-1.022,2.41-1.594,3.752C20.167,19.992,19.949,22.154,19.639,24.184z"/>
		<path style="fill:#511044;" d="M18.518,39.157c1.101-0.896,2.206-1.815,3.302-2.751c0.007-1.72,0.351-3.576,0.709-5.243
			c1.049-4.89,3.856-12.533,6.487-19.155c-1.32,1.285-2.48,2.767-3.655,4.37c-0.859,3.487-2.097,7.591-3.853,12.388
			C20.01,32.859,19.062,36.286,18.518,39.157z"/>
		<path style="fill:#E21E26;" d="M32.68,26.455L32.68,26.455c-0.004,0.004-0.006,0.007-0.006,0.007
			c-3.471,3.362-7.162,6.787-10.854,9.944c-0.005,1.194,0.156,2.322,0.584,3.275c4.129-4.189,7.547-8.807,10.268-13.215
			C32.672,26.467,32.676,26.462,32.68,26.455z"/>
		<path style="fill:#602770;" d="M21.507,28.766c1.756-4.797,2.994-8.901,3.853-12.388c-1.261,1.726-2.53,3.589-4.021,5.506
			c-0.592,0.763-1.155,1.528-1.701,2.3c-0.844,5.453-2.362,9.944-4.028,13.514c0.526,0.876,1.095,1.683,1.704,2.425
			c0.401-0.319,0.804-0.641,1.204-0.965C19.062,36.286,20.01,32.859,21.507,28.766z"/>
		<path style="fill:#7B1443;" d="M37.818,9.3c-0.398,3.208-3.287,10.854-5.139,17.153c0.004-0.004,0.006-0.01,0.006-0.01
			c4.748-7.732,7.533-15.077,8.861-19.16c-0.035-0.034-0.07-0.064-0.104-0.096c-1.311,0.039-2.514,0.156-3.613,0.351
			C37.893,8.109,37.895,8.695,37.818,9.3z"/>
		<path style="fill:#6F2A82;" d="M17.314,40.122c0.281,0.348,0.577,0.68,0.879,0.999c0.086-0.622,0.193-1.277,0.324-1.964
			C18.118,39.481,17.715,39.803,17.314,40.122z"/>
		<path style="fill:#7B1443;" d="M18.518,39.157c-0.131,0.687-0.238,1.342-0.324,1.964c0.434,0.462,0.878,0.895,1.338,1.299
			c0.996-0.892,1.953-1.804,2.873-2.738c-0.429-0.953-0.59-2.081-0.584-3.275C20.724,37.342,19.618,38.261,18.518,39.157z"/>
		<path style="fill:#89181A;" d="M29.016,12.008c1.143-2.883,2.256-5.565,3.176-7.746c-1.867,0.289-3.641,1.058-5.137,2.242
			c-0.195,2.527-0.682,5.773-1.694,9.873C26.535,14.775,27.695,13.292,29.016,12.008z"/>
		<path style="fill:#89181A;" d="M41.443,7.188c-0.756-0.728-1.631-1.357-2.615-1.861c-0.617-0.315-1.252-0.563-1.893-0.751
			c0.449,0.91,0.779,1.904,0.895,2.963C38.93,7.344,40.133,7.227,41.443,7.188z"/>
		<path style="fill:#E21E26;" d="M37.83,7.539c-0.115-1.059-0.445-2.053-0.895-2.963c-1.572-0.464-3.188-0.557-4.744-0.313
			c-0.92,2.181-2.033,4.863-3.176,7.746C31.246,9.839,33.914,8.229,37.83,7.539z"/>
		<path style="fill:#015578;" d="M21.026,10.771c-0.269-0.631-0.593-1.237-0.98-1.809c0.072,0.835,0.136,1.665,0.18,2.475
			L21.026,10.771z"/>
		<path style="fill:#511044;" d="M15.61,37.697c-0.652,1.394-1.323,2.646-1.986,3.763c0.24,0.319,0.494,0.628,0.77,0.923
			c0.969-0.73,1.946-1.485,2.92-2.261C16.705,39.38,16.136,38.573,15.61,37.697z"/>
		<path style="fill:#7B1443;" d="M18.193,41.121c-0.302-0.319-0.598-0.651-0.879-0.999c-0.974,0.775-1.951,1.53-2.92,2.261
			c0.762,0.818,1.665,1.529,2.693,2.101c0.279-0.224,0.564-0.448,0.84-0.677C17.97,42.979,18.058,42.088,18.193,41.121z"/>
		<path style="fill:#8D1A4F;" d="M18.193,41.121c-0.136,0.967-0.223,1.857-0.266,2.686c0.544-0.457,1.079-0.917,1.604-1.387
			C19.071,42.016,18.627,41.583,18.193,41.121z"/>
		<path style="fill:#A41E22;" d="M32.68,26.453c-0.004,0.014-0.002,0.009,0,0.004c-0.004,0.006-0.006,0.008-0.006,0.008
			c-2.723,4.41-6.141,9.027-10.27,13.217c0.612,1.37,1.784,2.38,3.836,2.704c0.922,0.147,1.832,0.045,2.74-0.235l3.357-5.913
			c-0.01,0-0.016,0-0.016,0C30.305,36.192,31.119,31.785,32.68,26.453z"/>
		<path style="fill:#5D0836;" d="M32.338,36.237L28.98,42.15c0.852-0.263,1.705-0.688,2.566-1.213
			c0.068-0.102,0.135-0.201,0.197-0.306l0.004,0.004l1.619-2.805l0.629-2.074C33.314,36.07,32.75,36.24,32.338,36.237z"/>
		<path style="fill:#660B35;" d="M32.68,26.453c-1.561,5.332-2.375,9.739-0.365,9.784c0,0,0.014,0,0.023,0l3.238-5.706l3.01-9.949
			C36.699,22.515,34.715,24.482,32.68,26.453z"/>
		<path style="fill:#A41E22;" d="M33.996,35.757l1.58-5.226l-3.238,5.706C32.75,36.24,33.314,36.07,33.996,35.757z"/>
		<path style="fill:#4E0836;" d="M32.68,26.453C32.686,26.449,32.688,26.445,32.68,26.453c2.035-1.971,4.02-3.938,5.906-5.871
			l3.762-12.415c-0.252-0.307-0.516-0.601-0.801-0.883c-1.328,4.083-4.113,11.427-8.859,19.16
			C32.688,26.443,32.688,26.443,32.68,26.453z"/>
		<path style="fill:#4E0836;" d="M27.625,44.538c1.547-0.838,2.904-2.058,3.922-3.601c-0.861,0.524-1.715,0.95-2.566,1.213
			L27.625,44.538z"/>
		<path style="fill:#5D0836;" d="M26.24,42.386c-2.053-0.324-3.224-1.334-3.836-2.704c-0.92,0.935-1.876,1.847-2.873,2.738
			c1.539,1.363,3.215,2.425,4.921,3.253c1.107-0.214,2.177-0.596,3.173-1.135l1.355-2.388C28.072,42.431,27.162,42.533,26.24,42.386
			z"/>
		<path style="fill:#511044;" d="M17.087,44.483c0.114,0.066,0.231,0.131,0.347,0.19c0.154,0.079,0.305,0.149,0.458,0.218
			c0.005-0.349,0.015-0.707,0.035-1.085C17.651,44.035,17.366,44.26,17.087,44.483z"/>
		<path style="fill:#660B35;" d="M17.928,43.807c-0.021,0.378-0.03,0.736-0.035,1.085c2.127,0.965,4.41,1.193,6.56,0.781
			c-1.706-0.828-3.382-1.89-4.921-3.253C19.006,42.89,18.472,43.35,17.928,43.807z"/>
		<path style="fill:#693E91;" d="M44.789,35.451c-2.875,0-5.201,2.331-5.201,5.202c0,2.875,2.326,5.206,5.201,5.206
			c2.873,0,5.203-2.331,5.203-5.206C49.992,37.782,47.662,35.451,44.789,35.451z"/>
	</g>
</g>
</svg>
