<?xml version="1.0" encoding="utf-8"?>
<!-- Generator: Adobe Illustrator 16.0.4, SVG Export Plug-In . SVG Version: 6.00 Build 0)  -->
<!DOCTYPE svg PUBLIC "-//W3C//DTD SVG 1.1//EN" "http://www.w3.org/Graphics/SVG/1.1/DTD/svg11.dtd">
<svg version="1.1" id="Layer_1" xmlns="http://www.w3.org/2000/svg" xmlns:xlink="http://www.w3.org/1999/xlink" x="0px" y="0px"
	 width="100px" height="100px" viewBox="0 0 100 100" style="enable-background:new 0 0 100 100;" xml:space="preserve">
<g id="_x24_-Sack">
	<path style="fill:#FFFFFF;stroke:#FFFFFF;stroke-miterlimit:10;" d="M62.741,70.792c0-6.688-5.418-9.553-10.351-11.781V44.047
		c3.183,0.636,5.25,2.229,5.889,3.184c0.796,1.114,2.229,1.273,3.343,0.638c1.119-0.797,1.276-2.23,0.637-3.345
		c-1.59-2.227-4.936-4.615-9.866-5.253v-5.89c0-1.275-1.115-2.39-2.391-2.39c-1.276,0-2.389,1.115-2.389,2.39v5.73
		c-5.89,0.954-10.348,5.413-10.348,10.986c0,6.842,5.412,9.867,10.348,11.937v14.807c-3.342-0.637-5.254-2.229-6.049-3.184
		c-0.797-1.115-2.229-1.437-3.342-0.64c-1.115,0.797-1.436,2.23-0.639,3.347c1.432,2.227,4.936,4.776,9.869,5.413v5.729
		c0,1.277,1.113,2.388,2.392,2.388c1.271,0,2.387-1.109,2.387-2.388v-5.729C58.279,80.82,62.741,76.364,62.741,70.792z
		 M42.042,50.097c0-2.55,2.069-5.255,5.571-6.05v12.735C44.111,55.029,42.042,53.277,42.042,50.097z M52.393,76.841V64.266
		c3.502,1.752,5.567,3.344,5.567,6.526C57.96,73.337,55.895,76.044,52.393,76.841z"/>
	<path style="fill:#FFFFFF;stroke:#FFFFFF;stroke-miterlimit:10;" d="M56.527,16.505c-0.479,0-0.954-0.158-1.434-0.478
		c-1.111-0.795-1.271-2.228-0.477-3.343l4.457-5.888L50.318,7.75c-0.157,0-0.316,0-0.474,0l-8.758-0.954l4.458,5.888
		c0.796,1.115,0.637,2.548-0.479,3.343c-1.113,0.796-2.547,0.638-3.343-0.477l-7.8-10.349c-0.638-0.793-0.638-1.75-0.159-2.545
		c0.479-0.796,1.432-1.274,2.389-1.274l14.009,1.593l14.008-1.593c0.959-0.158,1.912,0.32,2.392,1.274
		c0.477,0.955,0.477,1.91-0.158,2.545L58.6,15.55C57.96,16.188,57.163,16.505,56.527,16.505z"/>
	<path style="fill:#FFFFFF;stroke:#FFFFFF;stroke-miterlimit:10;" d="M50.002,98.648c-16.239,0-34.547,0-34.547-23.719
		c0-22.127,15.443-55.879,34.547-55.879c19.105,0,34.544,33.752,34.544,55.879C84.546,98.648,66.238,98.648,50.002,98.648z
		 M50.002,23.829c-7.004,0-14.487,6.525-20.538,17.671c-5.57,10.348-9.074,23.402-9.074,33.271
		c-0.158,18.149,11.145,19.104,29.612,19.104c18.464,0,29.771-0.953,29.771-18.943c0-10.027-3.504-23.084-9.076-33.271
		C64.488,30.354,57.009,23.829,50.002,23.829z"/>
</g>
</svg>
