<?xml version="1.0" encoding="utf-8"?>
<!-- Generator: Adobe Illustrator 16.0.4, SVG Export Plug-In . SVG Version: 6.00 Build 0)  -->
<!DOCTYPE svg PUBLIC "-//W3C//DTD SVG 1.1//EN" "http://www.w3.org/Graphics/SVG/1.1/DTD/svg11.dtd">
<svg version="1.1" id="Layer_1" xmlns="http://www.w3.org/2000/svg" xmlns:xlink="http://www.w3.org/1999/xlink" x="0px" y="0px"
	 width="100px" height="100px" viewBox="0 0 100 100" style="enable-background:new 0 0 100 100;" xml:space="preserve">
<g>
	<g>
		
			<polyline style="fill:none;stroke:#EC9022;stroke-width:3;stroke-linecap:round;stroke-linejoin:round;stroke-miterlimit:10;" points="
			-43.727,48.211 -52.058,40.033 -59.67,48.133 		"/>
		
			<line style="fill:none;stroke:#EC9022;stroke-width:3;stroke-linecap:round;stroke-linejoin:round;stroke-miterlimit:10;" x1="-51.827" y1="68.421" x2="-51.827" y2="40.602"/>
	</g>
	<g>
		
			<polyline style="fill:none;stroke:#EC9022;stroke-width:3;stroke-linecap:round;stroke-linejoin:round;stroke-miterlimit:10;" points="
			-41.77,60.246 -33.438,68.421 -25.827,60.324 		"/>
		
			<line style="fill:none;stroke:#EC9022;stroke-width:3;stroke-linecap:round;stroke-linejoin:round;stroke-miterlimit:10;" x1="-33.671" y1="40.033" x2="-33.671" y2="67.853"/>
	</g>
	<path style="fill:#EC9022;" d="M-67.069,89.465V17.604c0-1.508,0.909-2.417,2.418-2.417h43.802c1.513,0,2.419,0.909,2.419,2.417
		v71.861c0,1.51-0.906,2.418-2.419,2.418H-64.65C-66.16,91.883-67.069,90.975-67.069,89.465z M-11.179,21.59V9.502
		c0-3.021-1.809-4.832-4.833-4.832h-53.475c-3.024,0-4.834,1.811-4.834,4.832V98.95c0,3.023,1.81,4.835,4.834,4.835h16.92
		l8.461-0.001h28.093c3.024,0,4.833-1.811,4.833-4.836V30.054 M-48.77,8.557h11.935c0.822,0,1.491,0.668,1.491,1.491
		c0,0.824-0.669,1.493-1.491,1.493H-48.77c-0.821,0-1.49-0.668-1.49-1.493C-50.26,9.225-49.591,8.557-48.77,8.557z"/>
</g>
<g id="_x24_-Sack">
	<path style="fill:#EC9022;stroke:#EC9022;stroke-miterlimit:10;" d="M62.741,70.792c0-6.688-5.418-9.553-10.35-11.781V44.047
		c3.182,0.636,5.25,2.229,5.889,3.184c0.795,1.114,2.229,1.273,3.342,0.638c1.119-0.797,1.277-2.23,0.637-3.345
		c-1.59-2.227-4.936-4.615-9.867-5.253v-5.89c0-1.275-1.115-2.39-2.39-2.39c-1.276,0-2.389,1.115-2.389,2.39v5.73
		c-5.89,0.954-10.348,5.413-10.348,10.986c0,6.843,5.412,9.867,10.348,11.937v14.807c-3.342-0.637-5.254-2.229-6.049-3.184
		c-0.797-1.115-2.229-1.436-3.342-0.639c-1.115,0.797-1.436,2.23-0.639,3.346c1.432,2.227,4.936,4.777,9.869,5.414v5.729
		c0,1.277,1.113,2.387,2.392,2.387c1.271,0,2.387-1.109,2.387-2.387v-5.729C58.28,80.821,62.741,76.364,62.741,70.792z
		 M42.042,50.097c0-2.55,2.069-5.255,5.571-6.05v12.735C44.111,55.03,42.042,53.278,42.042,50.097z M52.392,76.841V64.265
		c3.502,1.752,5.568,3.344,5.568,6.527C57.96,73.337,55.894,76.044,52.392,76.841z"/>
	<path style="fill:#EC9022;stroke:#EC9022;stroke-miterlimit:10;" d="M56.528,16.505c-0.479,0-0.955-0.158-1.434-0.478
		c-1.111-0.795-1.271-2.228-0.477-3.343l4.457-5.888L50.318,7.75c-0.157,0-0.316,0-0.474,0l-8.758-0.954l4.458,5.888
		c0.796,1.115,0.637,2.548-0.479,3.343c-1.113,0.796-2.547,0.638-3.343-0.477L33.922,5.201c-0.638-0.793-0.638-1.75-0.159-2.545
		c0.479-0.796,1.432-1.274,2.389-1.274l14.009,1.593l14.008-1.593c0.959-0.158,1.912,0.32,2.391,1.274
		c0.477,0.955,0.477,1.91-0.158,2.545L58.599,15.55C57.96,16.188,57.163,16.505,56.528,16.505z"/>
	<path style="fill:#EC9022;stroke:#EC9022;stroke-miterlimit:10;" d="M50.002,98.649c-16.239,0-34.547,0-34.547-23.719
		c0-22.127,15.443-55.879,34.547-55.879c19.106,0,34.544,33.752,34.544,55.879C84.546,98.649,66.239,98.649,50.002,98.649z
		 M50.002,23.829c-7.004,0-14.487,6.525-20.538,17.671c-5.57,10.347-9.074,23.403-9.074,33.271
		c-0.158,18.15,11.145,19.104,29.612,19.104c18.464,0,29.771-0.953,29.771-18.943c0-10.027-3.504-23.084-9.076-33.271
		C64.489,30.354,57.009,23.829,50.002,23.829z"/>
</g>
</svg>
