<?xml version="1.0" encoding="utf-8"?>
<!-- Generator: Adobe Illustrator 16.0.4, SVG Export Plug-In . SVG Version: 6.00 Build 0)  -->
<!DOCTYPE svg PUBLIC "-//W3C//DTD SVG 1.1//EN" "http://www.w3.org/Graphics/SVG/1.1/DTD/svg11.dtd">
<svg version="1.1" id="Layer_1" xmlns="http://www.w3.org/2000/svg" xmlns:xlink="http://www.w3.org/1999/xlink" x="0px" y="0px"
	 width="100px" height="100px" viewBox="0 0 100 100" style="enable-background:new 0 0 100 100;" xml:space="preserve">
<g>
	<g>
		
			<polyline style="fill:none;stroke:#EC9022;stroke-width:3;stroke-linecap:round;stroke-linejoin:round;stroke-miterlimit:10;" points="
			-43.727,48.211 -52.058,40.033 -59.67,48.133 		"/>
		
			<line style="fill:none;stroke:#EC9022;stroke-width:3;stroke-linecap:round;stroke-linejoin:round;stroke-miterlimit:10;" x1="-51.827" y1="68.421" x2="-51.827" y2="40.602"/>
	</g>
	<g>
		
			<polyline style="fill:none;stroke:#EC9022;stroke-width:3;stroke-linecap:round;stroke-linejoin:round;stroke-miterlimit:10;" points="
			-41.77,60.246 -33.438,68.421 -25.827,60.324 		"/>
		
			<line style="fill:none;stroke:#EC9022;stroke-width:3;stroke-linecap:round;stroke-linejoin:round;stroke-miterlimit:10;" x1="-33.671" y1="40.033" x2="-33.671" y2="67.853"/>
	</g>
	<path style="fill:#EC9022;" d="M-67.069,89.465V17.604c0-1.508,0.909-2.417,2.418-2.417h43.802c1.513,0,2.419,0.909,2.419,2.417
		v71.861c0,1.51-0.906,2.418-2.419,2.418H-64.65C-66.16,91.883-67.069,90.975-67.069,89.465z M-11.179,21.59V9.502
		c0-3.021-1.809-4.832-4.833-4.832h-53.475c-3.024,0-4.834,1.811-4.834,4.832V98.95c0,3.023,1.81,4.835,4.834,4.835h16.92
		l8.461-0.001h28.093c3.024,0,4.833-1.811,4.833-4.836V30.054 M-48.77,8.557h11.935c0.822,0,1.491,0.668,1.491,1.491
		c0,0.824-0.669,1.493-1.491,1.493H-48.77c-0.821,0-1.49-0.668-1.49-1.493C-50.26,9.225-49.591,8.557-48.77,8.557z"/>
</g>
<g id="_x24_-Sack">
	<path style="fill:#EC9022;stroke:#EC9022;stroke-miterlimit:10;" d="M165.241,72.143c0-6.688-5.418-9.553-10.35-11.781V45.397
		c3.182,0.636,5.25,2.229,5.889,3.184c0.795,1.114,2.229,1.273,3.342,0.638c1.119-0.797,1.277-2.23,0.637-3.345
		c-1.59-2.227-4.936-4.615-9.867-5.253v-5.89c0-1.275-1.115-2.39-2.39-2.39c-1.275,0-2.389,1.115-2.389,2.39v5.73
		c-5.891,0.954-10.348,5.413-10.348,10.986c0,6.844,5.412,9.867,10.348,11.938v14.807c-3.342-0.637-5.254-2.229-6.049-3.184
		c-0.797-1.115-2.229-1.436-3.342-0.639c-1.115,0.797-1.436,2.23-0.639,3.346c1.432,2.227,4.936,4.777,9.869,5.414v5.729
		c0,1.277,1.113,2.387,2.392,2.387c1.271,0,2.387-1.109,2.387-2.387v-5.729C160.78,82.172,165.241,77.715,165.241,72.143z
		 M144.541,51.447c0-2.549,2.07-5.255,5.572-6.05v12.735C146.611,56.381,144.541,54.629,144.541,51.447z M154.892,78.191V65.615
		c3.502,1.752,5.568,3.344,5.568,6.527C160.46,74.688,158.394,77.395,154.892,78.191z"/>
	<path style="fill:#EC9022;stroke:#EC9022;stroke-miterlimit:10;" d="M159.028,17.856c-0.479,0-0.955-0.158-1.434-0.478
		c-1.111-0.795-1.271-2.228-0.477-3.343l4.457-5.888l-8.757,0.954c-0.157,0-0.316,0-0.474,0l-8.759-0.954l4.459,5.888
		c0.795,1.115,0.637,2.548-0.479,3.343c-1.113,0.796-2.547,0.638-3.344-0.477l-7.801-10.349c-0.637-0.793-0.637-1.75-0.158-2.545
		c0.479-0.796,1.432-1.274,2.389-1.274l14.009,1.593l14.008-1.593c0.959-0.158,1.912,0.32,2.391,1.274
		c0.477,0.955,0.477,1.91-0.158,2.545l-7.803,10.349C160.46,17.538,159.663,17.856,159.028,17.856z"/>
	<path style="fill:#EC9022;stroke:#EC9022;stroke-miterlimit:10;" d="M152.502,100c-16.238,0-34.547,0-34.547-23.719
		c0-22.127,15.443-55.879,34.547-55.879c19.106,0,34.544,33.752,34.544,55.879C187.046,100,168.739,100,152.502,100z M152.502,25.18
		c-7.004,0-14.486,6.525-20.537,17.671c-5.57,10.347-9.074,23.403-9.074,33.271c-0.158,18.15,11.145,19.104,29.611,19.104
		c18.464,0,29.771-0.953,29.771-18.943c0-10.027-3.504-23.084-9.076-33.271C166.989,31.705,159.509,25.18,152.502,25.18z"/>
</g>
<g>
	<path style="fill:#EC9022;stroke:#EC9022;stroke-width:2;stroke-miterlimit:10;" d="M96.223,182c-0.777,0-1.52-0.449-1.848-1.217
		l-13.99-23.469c-0.43-1.016,0.041-2.199,1.059-2.637c1.014-0.434,2.199,0.029,2.645,1.058l13.984,23.47
		c0.432,1.014-0.037,2.197-1.057,2.641C96.758,181.948,96.486,182,96.223,182z"/>
	<path style="fill:#EC9022;stroke:#EC9022;stroke-width:2;stroke-miterlimit:10;" d="M3.778,182c-0.267,0-0.532-0.052-0.793-0.158
		c-1.018-0.439-1.487-1.623-1.056-2.641l14.562-24.115c0.444-1.023,1.62-1.494,2.642-1.055c1.022,0.437,1.492,1.621,1.057,2.638
		l-14.564,24.11C5.297,181.551,4.555,182,3.778,182z"/>
	<path style="fill:#EC9022;stroke:#EC9022;stroke-width:2;stroke-miterlimit:10;" d="M80.146,179.99c-1.104,0-2.01-0.898-2.01-2.008
		v-20.098h-56.27v20.098c0,1.109-0.906,2.008-2.012,2.008c-1.105,0-2.007-0.898-2.007-2.008v-22.107
		c0-1.106,0.902-2.008,2.007-2.008h60.292c1.104,0,2.01,0.901,2.01,2.008v22.107C82.156,179.092,81.25,179.99,80.146,179.99z"/>
	<path style="fill:#EC9022;stroke:#EC9022;stroke-width:2;stroke-miterlimit:10;" d="M96.223,234.253H3.778
		c-1.104,0-2.009-0.906-2.009-2.011V179.99c0-1.109,0.904-2.008,2.009-2.008h92.445c1.104,0,2.01,0.898,2.01,2.008v52.252
		C98.232,233.347,97.326,234.253,96.223,234.253z M5.789,230.232h88.426V182H5.789V230.232z"/>
	<path style="fill:#EC9022;stroke:#EC9022;stroke-width:2;stroke-miterlimit:10;" d="M66.076,206.116H33.925
		c-4.439,0-8.041-3.602-8.041-8.037c0-4.437,3.602-8.04,8.041-8.04h32.151c4.439,0,8.041,3.604,8.041,8.04
		C74.117,202.515,70.516,206.116,66.076,206.116z M33.925,194.059c-2.22,0-4.021,1.802-4.021,4.021c0,2.213,1.8,4.017,4.021,4.017
		h32.151c2.223,0,4.021-1.804,4.021-4.017c0-2.219-1.799-4.021-4.021-4.021H33.925z"/>
</g>
<g>
	<g id="_x24_-Sack_1_">
		<path style="fill:#EC9022;stroke:#EC9022;stroke-miterlimit:10;" d="M34.356,59.321c0-4.654-3.77-6.65-7.204-8.202V40.703
			c2.216,0.443,3.656,1.552,4.1,2.217c0.554,0.776,1.553,0.886,2.326,0.443c0.778-0.555,0.889-1.552,0.443-2.327
			c-1.106-1.551-3.435-3.213-6.869-3.657v-4.101c0-0.886-0.776-1.663-1.662-1.663c-0.889,0-1.664,0.776-1.664,1.663v3.989
			c-4.099,0.666-7.202,3.769-7.202,7.647c0,4.766,3.769,6.87,7.202,8.31v10.305c-2.326-0.442-3.656-1.55-4.21-2.215
			c-0.554-0.775-1.551-0.998-2.326-0.444c-0.776,0.555-0.999,1.554-0.443,2.331c0.996,1.548,3.434,3.322,6.87,3.765v3.988
			c0,0.89,0.774,1.664,1.662,1.664c0.887,0,1.664-0.774,1.664-1.664v-3.988C31.252,66.302,34.356,63.201,34.356,59.321z
			 M19.948,44.915c0-1.774,1.441-3.658,3.878-4.211v8.865C21.39,48.35,19.948,47.13,19.948,44.915z M27.152,63.529v-8.753
			c2.438,1.22,3.877,2.327,3.877,4.545C31.029,61.094,29.59,62.977,27.152,63.529z"/>
		<path style="fill:#EC9022;stroke:#EC9022;stroke-miterlimit:10;" d="M30.034,21.532c-0.334,0-0.666-0.11-0.999-0.333
			c-0.774-0.554-0.886-1.551-0.331-2.327l3.102-4.101l-6.095,0.665c-0.111,0-0.221,0-0.332,0l-6.095-0.665l3.103,4.101
			c0.554,0.776,0.443,1.773-0.332,2.327c-0.776,0.555-1.774,0.443-2.327-0.331l-5.431-7.205c-0.443-0.552-0.443-1.217-0.11-1.772
			c0.332-0.554,0.998-0.887,1.663-0.887l9.75,1.109l9.751-1.109c0.668-0.11,1.331,0.222,1.664,0.887
			c0.333,0.665,0.333,1.331-0.112,1.772l-5.428,7.205C31.029,21.311,30.476,21.532,30.034,21.532z"/>
		<path style="fill:#EC9022;stroke:#EC9022;stroke-miterlimit:10;" d="M25.49,78.713c-11.304,0-24.047,0-24.047-16.512
			c0-15.402,10.748-38.896,24.047-38.896c13.298,0,24.046,23.494,24.046,38.896C49.536,78.713,36.792,78.713,25.49,78.713z
			 M25.49,26.63c-4.876,0-10.084,4.542-14.297,12.301c-3.877,7.201-6.315,16.29-6.315,23.16
			C4.766,74.724,12.636,75.388,25.49,75.388c12.854,0,20.724-0.664,20.724-13.187c0-6.98-2.44-16.069-6.319-23.159
			C35.573,31.172,30.366,26.63,25.49,26.63z"/>
	</g>
	<path style="fill:#FFFFFF;stroke:#EC9022;stroke-width:4;stroke-miterlimit:10;" d="M99,89H33.655C26.92,89,21,83.018,21,76.281
		V66.117C21,59.383,26.92,54,33.655,54H99"/>
	<rect x="36.063" y="64.871" style="fill:none;" width="57.916" height="22.025"/>
	<text transform="matrix(1 0 0 1 36.0635 79.0566)" style="fill:#EC9022; font-family:'NeoSansStd-Bold'; font-size:18.4935;">8.432.</text>
</g>
</svg>
