<?xml version="1.0" encoding="utf-8"?>
<!-- Generator: Adobe Illustrator 16.0.4, SVG Export Plug-In . SVG Version: 6.00 Build 0)  -->
<!DOCTYPE svg PUBLIC "-//W3C//DTD SVG 1.1//EN" "http://www.w3.org/Graphics/SVG/1.1/DTD/svg11.dtd">
<svg version="1.1" id="Capa_1" xmlns="http://www.w3.org/2000/svg" xmlns:xlink="http://www.w3.org/1999/xlink" viewBox="0 0 100 100" style="enable-background:new 0 0 100 100;" xml:space="preserve">
<g>
	<path style="fill:#FFFFFF;" d="M50.591,6.815v1.5c8.125,0.001,15.465,3.289,20.789,8.613c5.322,5.326,8.608,12.667,8.609,20.792
		c-0.001,8.125-3.287,15.465-8.608,20.788c-5.324,5.321-12.664,8.607-20.79,8.608c-8.124-0.001-15.464-3.287-20.788-8.608
		c-5.322-5.324-8.608-12.663-8.609-20.788c0.001-8.125,3.288-15.466,8.61-20.792c5.324-5.324,12.664-8.612,20.788-8.613V6.815v-1.5
		C32.695,5.316,18.194,19.824,18.193,37.72c0.001,17.897,14.502,32.396,32.397,32.396c17.897-0.001,32.397-14.499,32.398-32.396
		c-0.001-17.896-14.5-32.404-32.398-32.405V6.815z"/>
	<path style="fill:#FFFFFF;" d="M68.633,64.674c4.107,2.508,8.767,6.043,12.806,9.808c4.039,3.757,7.461,7.781,9.11,11.092
		l0.001,0.003c0.667,1.309,1.058,2.979,1.05,4.202c0.007,0.684-0.132,1.214-0.243,1.398l-0.058,0.086l-0.008,0.008l0.034,0.036
		l-0.026-0.041l-0.008,0.005l0.034,0.036l-0.026-0.041l0.069,0.108l-0.035-0.124l-0.034,0.016l0.069,0.108l-0.035-0.124l0.007,0.026
		l-0.003-0.027l-0.004,0.001l0.007,0.026l-0.003-0.027l-0.021,0.001c-2.333,0-78.869,0-81.446,0
		c-0.101-0.003-0.098-0.015-0.101-0.014l-0.042-0.044c-0.044-0.056-0.123-0.199-0.181-0.434c-0.059-0.233-0.097-0.548-0.097-0.911
		c-0.01-1.212,0.441-2.909,1.181-4.161l-0.001,0.003c2.009-3.441,5.529-7.663,9.386-11.497c3.853-3.84,8.065-7.321,11.395-9.364
		c0.706-0.435,0.926-1.358,0.492-2.063c-0.434-0.706-1.358-0.927-2.063-0.493c-3.638,2.24-7.95,5.825-11.94,9.794
		c-3.987,3.974-7.627,8.302-9.859,12.108l-0.001,0.003c-1.014,1.761-1.579,3.812-1.588,5.671c0.006,0.997,0.156,1.963,0.673,2.842
		c0.26,0.435,0.634,0.844,1.119,1.13c0.483,0.288,1.06,0.434,1.628,0.431c2.577,0,79.113,0,81.446,0
		c0.567,0.004,1.15-0.16,1.618-0.47c0.712-0.467,1.115-1.155,1.347-1.834c0.233-0.688,0.318-1.412,0.319-2.168
		c-0.007-1.791-0.489-3.785-1.37-5.552l0.001,0.003c-1.947-3.867-5.553-8.025-9.747-11.942c-4.195-3.909-8.976-7.539-13.286-10.174
		c-0.707-0.432-1.631-0.209-2.062,0.498S67.926,64.242,68.633,64.674z"/>
</g>
</svg>
