<?xml version="1.0" encoding="utf-8"?>
<!-- Generator: Adobe Illustrator 16.0.4, SVG Export Plug-In . SVG Version: 6.00 Build 0)  -->
<!DOCTYPE svg PUBLIC "-//W3C//DTD SVG 1.1//EN" "http://www.w3.org/Graphics/SVG/1.1/DTD/svg11.dtd">
<svg version="1.1" id="Layer_1" xmlns="http://www.w3.org/2000/svg" xmlns:xlink="http://www.w3.org/1999/xlink" x="0px" y="0px"
	 width="50px" height="50px" viewBox="0 0 50 50" style="enable-background:new 0 0 50 50;" xml:space="preserve">
<g>
	<path style="fill:#FFFFFF;" d="M43.565,36.57c0.853-0.864,1.478-1.43,2.334-2.545c0.946-1.231,0.921-2.618,0-3.397
		c-0.919-0.779-4.527-4.032-6.437-5.376c-1.912-1.343-3.184-0.566-4.316,0.637c-1.132,1.204-1.981,1.415-4.245,0
		c-2.264-1.415-6.578-6.579-8.349-8.349c-1.767-1.768,0.354-3.891,1.559-5.022c1.202-1.131,0-2.264,0-2.264
		s-5.945-7.005-7.357-8.349c-1.416-1.343-3.114,1.204-3.114,1.204c-6.226,7.214-3.192,11.382-1.425,13.929
		c1.77,2.549,5.239,6.944,8.571,10.194c5.729,5.589,9.266,7.57,12.732,9.551C36.984,38.765,41.632,38.527,43.565,36.57z"/>
	<path style="fill:#FFFFFF;" d="M33.308,48.416c-3.87,0-6.271-2.304-7.707-3.681c-0.187-0.179-0.363-0.35-0.533-0.503
		c-1.169-1.063-5.563-5.276-8.771-8.353l-1.876-1.798c-0.193-0.185-0.402-0.395-0.625-0.619c-2.669-2.688-4.111-3.508-6.141-1.628
		c-0.459,0.426-1.86,1.727,0.24,4.164c2.294,2.661,5.569,5.812,5.604,5.845c0.773,0.743,0.797,1.972,0.055,2.746
		c-0.744,0.772-1.972,0.796-2.746,0.055c-0.139-0.134-3.438-3.308-5.854-6.111c-2.803-3.253-2.779-6.912,0.061-9.546
		c5.109-4.735,9.613-0.197,11.536,1.739c0.198,0.199,0.384,0.386,0.556,0.552l1.877,1.799c3.014,2.888,7.565,7.251,8.697,8.282
		c0.194,0.174,0.395,0.369,0.61,0.574c1.271,1.219,2.709,2.598,5.018,2.598c1.711,0,3.081-0.513,4.07-1.521
		c1.133-1.162,1.732-2.958,1.686-5.063c-0.023-1.072,0.827-1.961,1.898-1.985c1.101,0.023,1.96,0.827,1.983,1.898
		c0.07,3.159-0.921,5.95-2.791,7.864C38.432,47.484,36.063,48.416,33.308,48.416z"/>
</g>
</svg>
