<?xml version="1.0" encoding="utf-8"?>
<!-- Generator: Adobe Illustrator 16.0.4, SVG Export Plug-In . SVG Version: 6.00 Build 0)  -->
<!DOCTYPE svg PUBLIC "-//W3C//DTD SVG 1.1//EN" "http://www.w3.org/Graphics/SVG/1.1/DTD/svg11.dtd">
<svg version="1.1" id="Layer_1" xmlns="http://www.w3.org/2000/svg" xmlns:xlink="http://www.w3.org/1999/xlink" x="0px" y="0px"
	 width="100px" height="100px" viewBox="0 0 100 100" style="enable-background:new 0 0 100 100;" xml:space="preserve">
<g>
	<path style="fill:#FFFFFF;stroke:#FFFFFF;stroke-width:2;stroke-miterlimit:10;" d="M96.223,37.939c-0.777,0-1.52-0.45-1.849-1.217
		L80.385,13.254c-0.431-1.016,0.04-2.2,1.059-2.638c1.015-0.433,2.199,0.03,2.645,1.058l13.985,23.47
		c0.432,1.014-0.038,2.198-1.058,2.641C96.757,37.888,96.486,37.939,96.223,37.939z"/>
	<path style="fill:#FFFFFF;stroke:#FFFFFF;stroke-width:2;stroke-miterlimit:10;" d="M3.777,37.939
		c-0.267,0-0.532-0.052-0.793-0.158c-1.018-0.439-1.487-1.623-1.056-2.641L16.49,11.026c0.444-1.024,1.62-1.494,2.642-1.055
		c1.022,0.436,1.492,1.621,1.057,2.637L5.625,36.719C5.296,37.49,4.554,37.939,3.777,37.939z"/>
	<path style="fill:#FFFFFF;stroke:#FFFFFF;stroke-width:2;stroke-miterlimit:10;" d="M80.146,35.93c-1.104,0-2.01-0.898-2.01-2.008
		V13.824H21.866v20.099c0,1.109-0.906,2.008-2.012,2.008c-1.105,0-2.007-0.898-2.007-2.008V11.814c0-1.106,0.902-2.008,2.007-2.008
		h60.292c1.104,0,2.008,0.901,2.008,2.008v22.108C82.154,35.032,81.25,35.93,80.146,35.93z"/>
	<path style="fill:#FFFFFF;stroke:#FFFFFF;stroke-width:2;stroke-miterlimit:10;" d="M96.223,90.191H3.777
		c-1.104,0-2.009-0.905-2.009-2.01V35.93c0-1.109,0.904-2.008,2.009-2.008h92.446c1.104,0,2.01,0.898,2.01,2.008v52.251
		C98.23,89.286,97.325,90.191,96.223,90.191z M5.788,86.172h88.427V37.939H5.788V86.172z"/>
	<path style="fill:#FFFFFF;stroke:#FFFFFF;stroke-width:2;stroke-miterlimit:10;" d="M66.076,62.057H33.924
		c-4.439,0-8.041-3.603-8.041-8.037c0-4.438,3.602-8.042,8.041-8.042h32.152c4.438,0,8.041,3.604,8.041,8.042
		C74.117,58.454,70.516,62.057,66.076,62.057z M33.924,49.998c-2.22,0-4.021,1.802-4.021,4.021c0,2.213,1.8,4.017,4.021,4.017
		h32.152c2.222,0,4.021-1.804,4.021-4.017c0-2.22-1.801-4.021-4.021-4.021H33.924L33.924,49.998z"/>
</g>
</svg>
