<?xml version="1.0" encoding="utf-8"?>
<!-- Generator: Adobe Illustrator 16.0.4, SVG Export Plug-In . SVG Version: 6.00 Build 0)  -->
<svg version="1.1" id="Capa_1" xmlns="http://www.w3.org/2000/svg" xmlns:xlink="http://www.w3.org/1999/xlink" x="0px" y="0px"
	 viewBox="0 0 50 50" style="enable-background:new 0 0 50 50;" xml:space="preserve">
<g id="XMLID_2_">
	<g>
		<g>
			<g id="XMLID_11_">
				<g>
					<path style="fill:#FFFFFF;" d="M43.968,48.767L32.299,37.168c-3.222,2.577-7.711,3.737-11.857,3.737
						C9.139,40.905,0,31.743,0,20.44C0,9.16,9.139,0,20.441,0c11.283,0,20.441,9.16,20.441,20.44c0,3.947-0.994,8.065-3.357,11.359
						l11.239,11.455c0.626,0.609,0.995,1.854-0.258,3.106l-1.759,1.766C45.493,49.377,44.573,49.372,43.968,48.767z M35.439,20.438
						c0-8.285-6.71-14.995-14.996-14.995c-8.29,0-15.019,6.71-15.019,14.995c0,8.291,6.729,15.02,15.019,15.02
						C28.729,35.458,35.439,28.729,35.439,20.438z"/>
				</g>
			</g>
		</g>
	</g>
</g>
</svg>
