<?xml version="1.0" encoding="utf-8"?>
<!-- Generator: Adobe Illustrator 16.0.4, SVG Export Plug-In . SVG Version: 6.00 Build 0)  -->
<!DOCTYPE svg PUBLIC "-//W3C//DTD SVG 1.1//EN" "http://www.w3.org/Graphics/SVG/1.1/DTD/svg11.dtd">
<svg version="1.1" id="Capa_1" xmlns="http://www.w3.org/2000/svg" xmlns:xlink="http://www.w3.org/1999/xlink" x="0px" y="0px"
	 width="50px" height="50px" viewBox="0 0 50 50" style="enable-background:new 0 0 50 50;" xml:space="preserve">
<g id="XMLID_2_">
	<g>
		<g>
			<g id="XMLID_11_">
				<g>
					<path style="fill:#666666;" d="M32.312,36.166l-4.422-4.396c-1.221,0.977-2.922,1.415-4.493,1.415
						c-4.283,0-7.747-3.471-7.747-7.754c0-4.275,3.463-7.746,7.746-7.746c4.276,0,7.746,3.471,7.746,7.746
						c0,1.496-0.375,3.056-1.271,4.305l4.259,4.341c0.237,0.23,0.377,0.702-0.099,1.177l-0.666,0.669
						C32.891,36.396,32.542,36.395,32.312,36.166z M29.08,25.429c0-3.14-2.542-5.682-5.683-5.682c-3.142,0-5.691,2.542-5.691,5.682
						c0,3.142,2.55,5.693,5.691,5.693C26.538,31.122,29.08,28.571,29.08,25.429z"/>
				</g>
			</g>
		</g>
	</g>
</g>
</svg>
