<?xml version="1.0" encoding="utf-8"?>
<!-- Generator: Adobe Illustrator 16.0.4, SVG Export Plug-In . SVG Version: 6.00 Build 0)  -->
<!DOCTYPE svg PUBLIC "-//W3C//DTD SVG 1.1//EN" "http://www.w3.org/Graphics/SVG/1.1/DTD/svg11.dtd">
<svg version="1.1" id="Layer_1" xmlns="http://www.w3.org/2000/svg" xmlns:xlink="http://www.w3.org/1999/xlink" x="0px" y="0px"
	 width="50px" height="50px" viewBox="0 0 50 50" style="enable-background:new 0 0 50 50;" xml:space="preserve">
<path style="fill:#FFFFFF;" d="M37.489,9H13.01C6.377,9,0.5,13.93,0.5,20.514v2.428C0.5,29.526,6.377,35,13.01,35h19.054
	c1.611,0.991,3.313,2.974,2.917,6.919c-0.305,3.026,13.366-3.274,14.52-16.095c0,0,0-2.627,0-2.883v-2.428
	C49.5,13.93,44.122,9,37.489,9z M36.562,27.665c-0.144,0.381-0.469,0.64-0.845,0.713c-0.199,0.041-0.413,0.029-0.618-0.051
	c-0.589-0.222-0.886-0.874-0.666-1.464c0.201-0.538,0.25-1.125,0.139-1.693c-0.266-1.335-1.354-2.335-2.703-2.482
	c-0.625-0.069-1.074-0.633-1.006-1.256c0.07-0.625,0.634-1.075,1.256-1.003c2.339,0.257,4.222,1.983,4.682,4.295
	C36.998,25.71,36.915,26.727,36.562,27.665z M40.435,28.447c-0.118,0.429-0.468,0.732-0.878,0.813
	c-0.166,0.031-0.346,0.028-0.521-0.02c-0.605-0.167-0.962-0.791-0.794-1.397c0.321-1.168,0.364-2.374,0.125-3.578
	c-0.588-2.951-2.857-5.319-5.78-6.033c-0.608-0.151-0.981-0.764-0.834-1.376c0.149-0.606,0.766-0.984,1.374-0.831
	c3.778,0.921,6.711,3.982,7.472,7.796C40.906,25.376,40.848,26.934,40.435,28.447z M45.252,28.932
	c-0.082,0.475-0.45,0.826-0.896,0.916c-0.136,0.027-0.275,0.03-0.418,0.003c-0.619-0.106-1.033-0.696-0.923-1.316
	c0.26-1.48,0.239-2.99-0.058-4.483c-0.92-4.625-4.477-8.334-9.056-9.454c-0.609-0.149-0.983-0.765-0.832-1.375
	c0.147-0.608,0.764-0.982,1.371-0.836c5.434,1.329,9.653,5.733,10.748,11.221C45.539,25.379,45.56,27.169,45.252,28.932z"/>
</svg>
