<?xml version="1.0" encoding="utf-8"?>
<!-- Generator: Adobe Illustrator 16.0.4, SVG Export Plug-In . SVG Version: 6.00 Build 0)  -->
<!DOCTYPE svg PUBLIC "-//W3C//DTD SVG 1.1//EN" "http://www.w3.org/Graphics/SVG/1.1/DTD/svg11.dtd">
<svg version="1.1" id="Layer_1" xmlns="http://www.w3.org/2000/svg" xmlns:xlink="http://www.w3.org/1999/xlink" x="0px" y="0px"
	 width="50px" height="50px" viewBox="0 0 50 50" style="enable-background:new 0 0 50 50;" xml:space="preserve">
<g>
	<path style="fill:#FFFFFF;" d="M43.143,12.922"/>
	<path style="fill:#FFFFFF;" d="M1.856,21.18"/>
	<path style="fill:#FFFFFF;" d="M3,22.556c0,0,0-3.564,0-3.831C3,16.825,3.22,14,6.807,14c0.676,0,6.06,0,6.06,0h1.376
		c0,0,26.502,0,29.453,0C47.285,14,49,17.049,49,18.951v2.229c0,0,0,20.997,0,23.949C49,48.716,46.121,50,44.22,50h-1.077
		c0,0-33.382,0-36.336,0C3.22,50,2.35,47.514,2.35,45.609L3,22.556z M10.113,46h22.904C35.573,46,36,44.359,36,41.673
		c0,0,0-18.878,0-20.824C36,18.402,32.296,19,30.027,19c-1.312,0-19.914,0-19.914,0C6.03,19,7,19.765,7,22.165v19.657
		C7,45.607,7.825,46,10.113,46z M42.266,23.295c1.452,0,2.625-1.176,2.625-2.627c0-1.449-1.173-2.625-2.625-2.625
		c-1.449,0-2.626,1.176-2.626,2.625C39.64,22.119,40.816,23.295,42.266,23.295z M42.266,31.553c1.452,0,2.625-1.176,2.625-2.627
		c0-1.449-1.173-2.625-2.625-2.625c-1.449,0-2.626,1.176-2.626,2.625C39.64,30.377,40.816,31.553,42.266,31.553z"/>
	<path style="fill:#FFFFFF;" d="M21.982,16.363c-0.426,0-0.854-0.133-1.218-0.398L9.239,7.536C8.318,6.862,8.119,5.57,8.792,4.65
		s1.966-1.121,2.884-0.448l10.236,7.485l12.181-9.995c0.883-0.724,2.182-0.595,2.904,0.286c0.723,0.882,0.597,2.183-0.284,2.906
		l-13.42,11.009C22.913,16.206,22.448,16.363,21.982,16.363z"/>
</g>
</svg>
