<?xml version="1.0" encoding="utf-8"?>
<!-- Generator: Adobe Illustrator 16.0.4, SVG Export Plug-In . SVG Version: 6.00 Build 0)  -->
<!DOCTYPE svg PUBLIC "-//W3C//DTD SVG 1.1//EN" "http://www.w3.org/Graphics/SVG/1.1/DTD/svg11.dtd">
<svg version="1.1" id="Layer_1" xmlns="http://www.w3.org/2000/svg" xmlns:xlink="http://www.w3.org/1999/xlink" x="0px" y="0px"
	 width="50px" height="50px" viewBox="0 0 50 50" style="enable-background:new 0 0 50 50;" xml:space="preserve">
<g>
	<path style="fill:#FFFFFF;" d="M36.917,32.613c-1.034,0-2.036-0.54-2.584-1.501c-2.062-3.628-5.932-5.882-10.101-5.882
		c-4.143,0-8,2.232-10.07,5.827c-0.815,1.421-2.629,1.912-4.051,1.093c-1.421-0.818-1.909-2.632-1.092-4.053
		c3.125-5.429,8.955-8.803,15.213-8.803c6.298,0,12.146,3.404,15.261,8.884c0.811,1.425,0.312,3.237-1.114,4.046
		C37.917,32.488,37.413,32.613,36.917,32.613z"/>
	<circle style="fill:#FFFFFF;" cx="24.232" cy="36.839" r="5.624"/>
	<path style="fill:#FFFFFF;" d="M46.255,24.029c-0.854,0-1.703-0.369-2.29-1.08c-4.881-5.916-12.074-9.308-19.732-9.308
		c-7.218,0-14.135,3.073-18.978,8.432c-1.1,1.215-2.974,1.311-4.192,0.212c-1.215-1.099-1.311-2.976-0.211-4.192
		C6.817,11.494,15.339,7.708,24.232,7.708c9.438,0,18.297,4.179,24.311,11.464c1.043,1.264,0.864,3.134-0.401,4.178
		C47.59,23.807,46.921,24.029,46.255,24.029z"/>
</g>
</svg>
